<?xml version="1.0" standalone="no"?>
<!DOCTYPE svg PUBLIC "-//W3C//DTD SVG 1.1//EN" "http://www.w3.org/Graphics/SVG/1.1/DTD/svg11.dtd" >
<svg xmlns="http://www.w3.org/2000/svg">
<metadata></metadata>
<defs>
<font id="covingtonbold" horiz-adv-x="969" >
<font-face units-per-em="2048" ascent="1638" descent="-410" />
<missing-glyph horiz-adv-x="807" />
<glyph horiz-adv-x="2048" />
<glyph horiz-adv-x="2048" />
<glyph unicode="&#xd;" horiz-adv-x="1024" />
<glyph unicode=" "  horiz-adv-x="807" />
<glyph unicode="&#x09;" horiz-adv-x="807" />
<glyph unicode="&#xa0;" horiz-adv-x="807" />
<glyph unicode="!" horiz-adv-x="561" d="M137 1323v111h324v-111h-66l-30 -975h-132l-30 975h-66zM186 125q0 26 9 49t24 40t35.5 26.5t44.5 9.5q25 0 46 -9.5t36.5 -26.5t24 -40t8.5 -49t-8.5 -49t-24 -40t-36.5 -26.5t-46 -9.5q-24 0 -44.5 9.5t-35.5 26.5t-24 40t-9 49z" />
<glyph unicode="&#x22;" horiz-adv-x="713" d="M139 1440h211l-71 -430h-86zM401 1440h211l-73 -430h-82z" />
<glyph unicode="#" horiz-adv-x="1114" d="M147 649v144h199l14 161h-213v144h224l20 207h144l-21 -207h166l16 207h144l-17 -207h185v-144h-199l-14 -161h213v-144h-224l-18 -205h-143l18 205h-164l-18 -205h-144l19 205h-187zM489 793h162l15 161h-162z" />
<glyph unicode="$" d="M147 336q0 27 9.5 50t26 40.5t38.5 27t47 9.5t47.5 -9.5t39.5 -27t26.5 -40.5t9.5 -50q0 -24 -8.5 -45t-23 -37.5t-33 -27.5t-39.5 -15q43 -87 131 -119v565l-174 195q-48 54 -71 117t-23 135q0 128 77 235q39 48 85.5 80.5t105.5 46.5v150h74v-139h14q2 0 5.5 -1t6.5 -1 v141h76v-150q56 -14 103 -46.5t85 -80.5q42 -51 62 -109t20 -124q0 -26 -9.5 -49t-26.5 -40t-39.5 -26.5t-47.5 -9.5t-47 9.5t-38 26.5t-25.5 40t-9.5 49q0 23 8 44t21.5 37.5t32.5 28t40 15.5q-44 82 -129 117v-566l172 -192q48 -53 72 -116t24 -138q0 -65 -20 -124 t-62 -110v2q-37 -51 -84.5 -83t-101.5 -46v-151h-76v139h-12h-14v-139h-74v151q-60 14 -106 45t-85 80q-40 51 -60 111t-20 125zM289 1182q0 -61 41 -105l88 -98v369q-28 -10 -48.5 -23t-35.5 -29h2q-47 -52 -47 -114zM492 78h8h8h10v469l-26 28v-497zM492 895l26 -31v502 h-8h-8h-10v-471zM594 92q25 11 46 24t38 31h-2q47 50 47 115q0 60 -43 103l-86 98v-371z" />
<glyph unicode="%" horiz-adv-x="1692" d="M123 0l1255 1436h230l-1256 -1436h-229zM150 1032v68q0 77 26 140.5t82 119.5q110 110 262 110t258 -110q109 -109 109 -260v-68q0 -77 -26.5 -141.5t-82.5 -120.5q-54 -56 -118 -82t-140 -26q-77 0 -141.5 26t-120.5 82t-82 120.5t-26 141.5zM365 926q0 -31 12.5 -58.5 t33.5 -48.5t49 -33t60 -12q31 0 58.5 12t48.5 33t33 48.5t12 58.5v280q0 31 -12 58.5t-33 48.5t-48.5 33t-58.5 12q-32 0 -60 -12t-49 -33t-33.5 -48.5t-12.5 -58.5v-280zM846 336v70q0 151 106 258q112 110 262 110q149 0 261 -110q108 -110 108 -258v-70q0 -78 -27 -142.5 t-81 -119.5q-109 -109 -261 -109q-75 0 -140.5 26.5t-121.5 82.5q-106 109 -106 262zM1063 229q0 -31 12 -58.5t32 -48t47.5 -32.5t59.5 -12q31 0 59 12t49 32.5t33.5 48t12.5 58.5v279q0 32 -12.5 60t-33.5 49t-49 33t-59 12q-32 0 -59.5 -12t-47.5 -33t-32 -49t-12 -60 v-279z" />
<glyph unicode="&#x26;" horiz-adv-x="1006" d="M150 336v141q0 96 45.5 179.5t123.5 136.5q-39 24 -70.5 58t-53 74.5t-33.5 87t-12 95.5q0 151 106 260q54 54 117 82.5t137 28.5q150 0 254 -107v70h108v-357h-108q-2 63 -21 114.5t-57 88.5q-37 38 -80 58t-96 20q-31 0 -58 -12.5t-47.5 -33.5t-32.5 -49.5t-12 -60.5 v-209q0 -31 12 -59t32.5 -49t47.5 -33t58 -12h430v-111h-68v-856q0 -32 13.5 -59.5t37 -48.5t55 -33t66.5 -12v-93l-20 -20q-75 0 -138.5 27t-117.5 84q-54 55 -80 118.5t-26 141.5v20q-74 -43 -152 -43q-74 0 -137 28.5t-117 84.5q-106 109 -106 260zM360 231 q0 -32 12 -59.5t32.5 -48.5t47.5 -33t58 -12q42 0 80.5 11t71.5 36v612h-152q-31 0 -58 -12.5t-47.5 -33.5t-32.5 -49.5t-12 -59.5v-351z" />
<glyph unicode="'" horiz-adv-x="401" d="M125 1440h184l-61 -430h-74z" />
<glyph unicode="(" horiz-adv-x="541" d="M137 633q0 238 51 420q25 89 70 188t113 205l75 -55q-51 -106 -86 -199.5t-55 -173.5q-18 -84 -27.5 -179t-9.5 -206q0 -113 9.5 -208.5t27.5 -178.5q41 -166 141 -373l-75 -55q-68 108 -113 205.5t-70 187.5q-51 181 -51 422z" />
<glyph unicode=")" horiz-adv-x="541" d="M131 -127q51 105 86.5 197t52.5 176q37 163 37 387q0 111 -9 207t-28 178q-17 81 -52.5 174t-86.5 199l76 55q66 -106 112 -205t72 -188q49 -180 49 -420q0 -242 -49 -422q-53 -180 -184 -393z" />
<glyph unicode="*" horiz-adv-x="864" d="M137 860l174 101l-174 100l72 121l172 -101v201h141v-201l172 101l72 -121l-174 -100l174 -101l-72 -123l-172 101v-201h-141v201l-172 -101z" />
<glyph unicode="+" horiz-adv-x="786" d="M145 449v139h199v198h137v-198h201v-139h-201v-199h-137v199h-199z" />
<glyph unicode="," horiz-adv-x="401" d="M125 236h184l-61 -431h-74z" />
<glyph unicode="-" horiz-adv-x="786" d="M145 346v107h537v-107h-537z" />
<glyph unicode="." horiz-adv-x="442" d="M133 106q0 22 8 42t22 35t34 23.5t43 8.5q22 0 41.5 -8.5t34.5 -23.5t23.5 -35t8.5 -42q0 -21 -8.5 -40.5t-23.5 -34t-34.5 -23t-41.5 -8.5q-23 0 -43 8.5t-34 23t-22 34t-8 40.5z" />
<glyph unicode="/" horiz-adv-x="870" d="M98 -90l584 1493l129 -51l-584 -1493z" />
<glyph unicode="0" d="M147 336v764q0 151 103 260q107 110 256 110q146 0 250 -110q54 -56 81 -119.5t27 -140.5v-764q0 -78 -27 -142.5t-81 -119.5q-103 -109 -250 -109q-74 0 -138 26.5t-118 82.5q-53 55 -78 119.5t-25 142.5zM356 229q0 -31 12 -58.5t32.5 -48t47.5 -32.5t58 -12 q30 0 56.5 12t47 32.5t32 48t11.5 58.5v977q0 31 -11.5 58.5t-32 48.5t-47 33t-56.5 12q-31 0 -58 -12t-47.5 -33t-32.5 -48.5t-12 -58.5v-977z" />
<glyph unicode="1" horiz-adv-x="909" d="M377 0v111h61v1212h-61v111h258v-1323h63v-111h-321z" />
<glyph unicode="2" d="M147 0q0 313 152 557q29 50 99 136t180 214q145 168 145 269q0 76 -72 133q-66 49 -145 49q-53 0 -96 -19.5t-80 -56.5t-55.5 -88.5t-20.5 -114.5h-107v357h107v-70q51 53 112.5 77.5t139.5 24.5q74 0 135.5 -26t114.5 -82q108 -113 108 -262q0 -143 -139 -326 q-29 -38 -59.5 -77t-61.5 -77q-29 -38 -60.5 -76.5t-60.5 -76.5q-121 -177 -127 -354h398v69h110v-180h-717z" />
<glyph unicode="3" d="M147 0v354h107q3 -124 78 -202h-2q70 -74 176 -74q30 0 56.5 12t47 32.5t32 48t11.5 58.5v351q0 31 -11.5 58.5t-32 48t-47 32.5t-56.5 12h-107v113h107q30 0 56.5 12t47 32t32 47.5t11.5 59.5v211q0 31 -11.5 58.5t-32 48.5t-47 33t-56.5 12q-103 0 -176 -76 q-37 -37 -55.5 -88t-20.5 -113h-107v355h107v-70q51 53 112.5 78.5t139.5 25.5q146 0 250 -110q54 -56 81 -119.5t27 -140.5q0 -48 -12 -94t-34.5 -86.5t-53.5 -74.5t-70 -59q39 -24 70 -58.5t53.5 -75t34.5 -86t12 -93.5v-137q0 -78 -27 -141t-81 -119q-105 -111 -250 -111 q-78 0 -139.5 26t-112.5 77v-68h-107z" />
<glyph unicode="4" horiz-adv-x="975" d="M113 348v96l452 990h201v-975h135v-111h-135v-237h68v-111h-347v111h68v237h-442zM246 459h309v678z" />
<glyph unicode="5" d="M147 0v354h107q3 -124 78 -202h-2q70 -74 176 -74q30 0 56.5 12t47 32.5t32 48t11.5 58.5v541q0 31 -11.5 59t-32 49t-47 33.5t-56.5 12.5q-31 0 -58 -12.5t-47.5 -33.5t-32.5 -49t-12 -59v-125h-209v793h541v69h107v-182h-439v-338q31 25 69.5 37t80.5 12 q74 0 135.5 -28t114.5 -82q54 -56 81 -120.5t27 -139.5v-330q0 -78 -27 -141t-81 -119q-105 -111 -250 -111q-78 0 -139.5 26t-112.5 77v-68h-107z" />
<glyph unicode="6" d="M147 336v764q0 151 103 260q107 110 256 110q74 0 137 -25.5t111 -78.5v70h110v-355h-110q-3 124 -74 201q-73 76 -174 76q-31 0 -58 -12t-47.5 -33t-32.5 -48.5t-12 -58.5v-221q31 26 69.5 37.5t80.5 11.5q145 0 250 -110q108 -110 108 -258v-330q0 -78 -27 -141 t-81 -119q-105 -111 -250 -111q-74 0 -138 26.5t-118 82.5q-53 55 -78 119.5t-25 142.5zM356 229q0 -31 12 -58.5t32.5 -48t47.5 -32.5t58 -12q30 0 56.5 12t47 32.5t32 48t11.5 58.5v541q0 31 -11.5 59t-32 49t-47 33.5t-56.5 12.5q-31 0 -58 -12.5t-47.5 -33.5t-32.5 -49 t-12 -59v-541z" />
<glyph unicode="7" d="M164 1253v181h717v-95l-308 -1339h-213l304 1323h-392v-70h-108z" />
<glyph unicode="8" d="M147 336v137q0 48 12 94t34 86.5t53 74.5t69 58q-38 25 -69 59t-53 74.5t-34 86.5t-12 94q0 151 103 260q107 110 256 110q146 0 250 -110q54 -56 81 -119.5t27 -140.5q0 -48 -12 -94t-34.5 -86.5t-53.5 -74.5t-70 -59q39 -24 70 -58t53.5 -74.5t34.5 -86.5t12 -94v-137 q0 -78 -27 -142.5t-81 -119.5q-103 -109 -250 -109q-74 0 -138 26.5t-118 82.5q-53 55 -78 119.5t-25 142.5zM356 229q0 -31 12 -58.5t32.5 -48t47.5 -32.5t58 -12q30 0 56.5 12t47 32.5t32 48t11.5 58.5v351q0 31 -11.5 58.5t-32 48t-47 32.5t-56.5 12q-31 0 -58 -12 t-47.5 -32.5t-32.5 -48t-12 -58.5v-351zM356 995q0 -32 12 -59.5t32.5 -47.5t47.5 -32t58 -12q30 0 56.5 12t47 32t32 47.5t11.5 59.5v211q0 31 -11.5 58.5t-32 48.5t-47 33t-56.5 12q-31 0 -58 -12t-47.5 -33t-32.5 -48.5t-12 -58.5v-211z" />
<glyph unicode="9" d="M147 0v354h107q3 -124 78 -202h-2q70 -74 176 -74q30 0 56.5 12t47 32.5t32 48t11.5 58.5v220q-63 -48 -147 -48q-74 0 -137 26.5t-117 82.5q-53 56 -79 119.5t-26 140.5v330q0 77 26 140.5t79 119.5q107 110 254 110q146 0 250 -110q54 -56 81 -119.5t27 -140.5v-764 q0 -78 -27 -142.5t-81 -119.5q-103 -109 -250 -109q-78 0 -139.5 26t-112.5 77v-68h-107zM356 666q0 -32 12 -60t32.5 -49t47.5 -33t58 -12q30 0 56.5 12t47 33t32 49t11.5 60v540q0 31 -11.5 58.5t-32 48.5t-47 33t-56.5 12q-31 0 -58 -12t-47.5 -33t-32.5 -48.5t-12 -58.5 v-540z" />
<glyph unicode=":" horiz-adv-x="442" d="M133 123q0 53 30 88t77 35q22 0 41.5 -9.5t34.5 -26t23.5 -39t8.5 -48.5t-8.5 -48t-23.5 -39t-34.5 -26.5t-41.5 -9.5q-23 0 -43 9.5t-34 26.5t-22 39t-8 48zM133 772q0 25 8 47.5t22 39.5t34 26.5t43 9.5q22 0 41.5 -9.5t34.5 -26.5t23.5 -39.5t8.5 -47.5t-8.5 -47 t-23.5 -38.5t-34.5 -26t-41.5 -9.5q-23 0 -43 9.5t-34 26t-22 38.5t-8 47z" />
<glyph unicode=";" horiz-adv-x="442" d="M133 780q0 53 30 88t77 35q22 0 41.5 -9.5t34.5 -26t23.5 -39t8.5 -48.5t-8.5 -48.5t-23.5 -39.5t-34.5 -27t-41.5 -10q-23 0 -43 10t-34 27t-22 39.5t-8 48.5zM143 250h193l-68 -459h-75z" />
<glyph unicode="&#x3c;" horiz-adv-x="756" d="M143 465v125l441 291l75 -119l-352 -236l352 -233l-75 -121z" />
<glyph unicode="=" horiz-adv-x="786" d="M145 322v133h537v-133h-537zM145 545v135h537v-135h-537z" />
<glyph unicode="&#x3e;" horiz-adv-x="756" d="M137 293l352 233l-352 236l74 119l440 -291v-125l-440 -293z" />
<glyph unicode="?" horiz-adv-x="987" d="M147 125q0 26 9.5 49t26 40t38.5 26.5t47 9.5t47.5 -9.5t39.5 -26.5t26.5 -40t9.5 -49t-9.5 -49t-26.5 -40t-39.5 -26.5t-47.5 -9.5t-47 9.5t-38.5 26.5t-26 40t-9.5 49zM162 860h211q0 -35 11.5 -66.5t32 -55.5t47.5 -38t58 -14t58 12t47.5 33t32.5 48.5t12 58.5v366 q0 31 -12 59t-32.5 49t-47.5 33.5t-58 12.5q-51 0 -95 -19.5t-81 -56.5q-35 -37 -53.5 -88.5t-20.5 -114.5h-108v357h108v-70q50 53 112.5 77.5t137.5 24.5t137.5 -26t114.5 -82q107 -110 107 -260v-156q0 -77 -26.5 -140.5t-80.5 -119.5q-102 -109 -252 -109q-86 0 -153 52 l-31 -279h-139z" />
<glyph unicode="@" horiz-adv-x="1620" d="M150 -84v1260q0 106 77 186q41 40 87 60t100 20h833q56 0 102 -21t85 -59q37 -38 57 -85t20 -101v-912q0 -104 -79 -186q-39 -38 -85 -58t-100 -20h-291l7 61q-42 -43 -97.5 -70.5t-113.5 -27.5q-72 0 -131.5 25.5t-110.5 74.5q-48 51 -73 111.5t-25 132.5v14q0 9 2 17 v-2l37 422q6 75 39 140.5t90 119.5q118 108 268 108q60 0 112 -27t84 -75l9 68h231l-8 -111h-70l-78 -870h119q31 0 59 12.5t49 33.5t33.5 48.5t12.5 58.5v912q0 31 -12.5 59t-33.5 49t-49 33t-59 12h-833q-31 0 -58.5 -12t-48.5 -33t-33 -49t-12 -59v-1260q0 -32 12 -60 t33 -49t48.5 -33t58.5 -12h784v-112h-784q-54 0 -100 20t-87 62q-77 77 -77 184zM618 215q0 -29 11 -54t30 -43.5t44.5 -29t54.5 -10.5q32 0 61 12t51.5 33t37 49.5t16.5 60.5l57 629v15q0 28 -10.5 53t-29.5 43.5t-44 29.5t-53 11q-65 0 -113 -47q-26 -22 -39 -49.5 t-18 -59.5l-56 -629v-14z" />
<glyph unicode="A" horiz-adv-x="1141" d="M63 0v111h109l350 1323h158l346 -1323h94v-111h-393v111h78l-64 237h-391l-61 -237h76v-111h-302zM379 459h334l-166 631z" />
<glyph unicode="B" horiz-adv-x="999" d="M104 0v111h68v1212h-68v111h412q74 0 136 -27.5t116 -81.5q109 -112 109 -260v-35q0 -102 -50 -183t-137 -124q46 -21 83.5 -53.5t64 -74t41 -90t14.5 -102.5v-34q0 -152 -107 -260q-105 -109 -254 -109h-428zM383 111h149q31 0 58 12t47.5 33t32.5 48.5t12 59.5v244 q0 31 -12 59t-32.5 49t-47.5 33.5t-58 12.5h-149v-551zM383 772h133q30 0 57 12t48 33t33 49t12 60v241q0 32 -12 60.5t-33 49.5t-48 33.5t-57 12.5h-133v-551z" />
<glyph unicode="C" d="M147 336v764q0 151 103 260q107 110 256 110q74 0 137 -25.5t111 -78.5v70h110v-355h-110q0 128 -72 203q-35 37 -80 55.5t-96 18.5q-31 0 -58 -12t-47.5 -33t-32.5 -48.5t-12 -58.5v-977q0 -31 12 -58.5t32.5 -48t47.5 -32.5t58 -12q51 0 96 18t80 56q72 75 72 202h110 v-354h-110v68q-48 -51 -111 -77t-137 -26t-138 26.5t-118 82.5q-53 55 -78 119.5t-25 142.5z" />
<glyph unicode="D" horiz-adv-x="999" d="M104 0v111h68v1212h-68v111h428q147 0 254 -109q107 -110 107 -260v-696q0 -153 -107 -263q-106 -106 -254 -106h-428zM383 111h149q31 0 58 12t47.5 33t32.5 48.5t12 59.5v903q0 32 -12 60.5t-32.5 49.5t-47.5 33.5t-58 12.5h-149v-1212z" />
<glyph unicode="E" horiz-adv-x="999" d="M104 0v111h68v1212h-68v111h789v-181h-109v70h-401v-551h231v70h109v-250h-109v70h-231v-551h401v69h109v-180h-789z" />
<glyph unicode="F" horiz-adv-x="956" d="M104 0v111h68v1212h-68v111h789v-181h-109v70h-401v-551h231v70h109v-250h-109v70h-231v-551h68v-111h-347z" />
<glyph unicode="G" horiz-adv-x="999" d="M147 336v772q0 150 107 260q54 54 116.5 82.5t137.5 28.5q151 0 252 -107v70h106v-357h-106q0 65 -19.5 116.5t-54.5 88.5q-37 37 -81 56.5t-97 19.5q-31 0 -58 -12.5t-47.5 -33.5t-32.5 -49.5t-12 -60.5v-979q0 -32 12 -59.5t32.5 -48.5t47.5 -33t58 -12q42 0 79.5 11 t69.5 36v541h-67v112h346v-112h-70v-680q0 -78 -26 -141.5t-80 -118.5q-53 -57 -121 -84t-152 -27v113q35 0 66 12t54 33t36.5 48.5t13.5 59.5v125q-73 -43 -149 -43q-75 0 -137.5 28.5t-116.5 84.5q-107 110 -107 260z" />
<glyph unicode="H" horiz-adv-x="1004" d="M106 0v111h68v1212h-68v111h347v-111h-68v-551h299v551h-68v111h351v-111h-70v-1212h70v-111h-351v111h68v551h-299v-551h68v-111h-347z" />
<glyph unicode="I" horiz-adv-x="481" d="M98 0v111h66v1212h-66v111h324v-111h-64v-1212h64v-111h-324z" />
<glyph unicode="J" horiz-adv-x="850" d="M104 0v250h107q0 -36 12 -67.5t32 -54.5t47.5 -36.5t57.5 -13.5t57 12t47 32.5t32 48t12 58.5v1094h-68v113h344v-113h-67v-987q0 -78 -26.5 -141t-80.5 -119q-104 -111 -250 -111q-43 0 -80 11.5t-69 37.5v-14h-107z" />
<glyph unicode="K" horiz-adv-x="1028" d="M106 0v111h68v1212h-68v111h347v-111h-68v-610l377 610h-51v111h256v-111h-80l-279 -451l283 -761h76v-111h-359v111h60l-199 540l-84 -137v-403h68v-111h-347z" />
<glyph unicode="L" horiz-adv-x="885" d="M104 0v111h68v1212h-68v111h347v-111h-70v-1212h332v69h108v-180h-717z" />
<glyph unicode="M" horiz-adv-x="1423" d="M106 0v111h70v1212h-70v111h445v-111h-78l260 -979l260 979h-78v111h441v-111h-68v-1212h68v-111h-352v111h69v1071l-313 -1182h-160l-313 1182v-1071h69v-111h-250z" />
<glyph unicode="N" horiz-adv-x="1028" d="M106 0v111h68v1212h-68v111h302l380 -1170v1059h-67v111h246v-111h-70v-1212h70v-111h-305l-379 1167v-1056h67v-111h-244z" />
<glyph unicode="O" d="M147 336v764q0 151 103 260q107 110 256 110q146 0 250 -110q54 -56 81 -119.5t27 -140.5v-764q0 -78 -27 -142.5t-81 -119.5q-103 -109 -250 -109q-74 0 -138 26.5t-118 82.5q-53 55 -78 119.5t-25 142.5zM356 229q0 -31 12 -58.5t32.5 -48t47.5 -32.5t58 -12 q30 0 56.5 12t47 32.5t32 48t11.5 58.5v977q0 31 -11.5 58.5t-32 48.5t-47 33t-56.5 12q-31 0 -58 -12t-47.5 -33t-32.5 -48.5t-12 -58.5v-977z" />
<glyph unicode="P" horiz-adv-x="956" d="M104 0v111h68v1212h-68v111h428q147 0 254 -109q107 -110 107 -260v-35q0 -77 -26.5 -140.5t-80.5 -119.5t-116.5 -82t-137.5 -26h-149v-551h68v-111h-347zM383 772h149q31 0 58 12t47.5 33t32.5 49t12 60v241q0 32 -12 60.5t-32.5 49.5t-47.5 33.5t-58 12.5h-149v-551z " />
<glyph unicode="Q" horiz-adv-x="975" d="M96 -137q42 65 94 106t117 58q-75 52 -117.5 133.5t-42.5 175.5v768q0 77 25.5 141.5t79.5 118.5q108 111 256 111q75 0 137.5 -27.5t116.5 -83.5q106 -106 106 -260v-768q0 -139 -90 -244q-35 -43 -77.5 -70t-92.5 -42q20 -13 40.5 -20t43.5 -7q38 0 73 21t62 63l76 -49 l6 -29q-54 -84 -129 -124t-172 -40q-49 0 -98.5 16.5t-101.5 47.5q-22 14 -43 20t-41 6q-39 0 -74.5 -22t-63.5 -64zM358 231q0 -32 12 -59.5t32.5 -48.5t47.5 -33t58 -12t58 12t47 33t32 48.5t12 59.5v979q0 31 -12 59t-32 49t-47 33.5t-58 12.5t-58 -12.5t-47.5 -33.5 t-32.5 -49t-12 -59v-979z" />
<glyph unicode="R" horiz-adv-x="1053" d="M106 0v111h68v1212h-68v111h416q147 0 254 -109q109 -112 109 -260v-35q0 -50 -13.5 -96t-38 -86t-60 -72t-79.5 -53q47 -21 85 -54.5t65 -75t42 -90t15 -100.5v-139q0 -32 13.5 -59.5t37 -48.5t55 -33t66.5 -12v-91l-20 -20q-151 0 -256 109q-109 111 -109 260v139 q0 31 -12 59t-32 49t-48 33.5t-59 12.5h-150v-551h68v-111h-349zM387 772h135q31 0 58 12t47.5 33t32.5 49t12 60v241q0 32 -12 60.5t-32.5 49.5t-47.5 33.5t-58 12.5h-135v-551z" />
<glyph unicode="S" d="M147 0v354h107q3 -124 78 -202h-2q70 -74 176 -74q40 0 77 11.5t72 39.5q32 26 50 58.5t18 72.5q0 29 -10.5 56t-32.5 49l-436 483q-48 53 -71 115t-23 135q0 77 24.5 141.5t77.5 120.5q107 110 254 110q74 0 137 -25.5t111 -78.5v70h110v-355h-110q-3 124 -74 201 q-73 76 -174 76q-42 0 -79 -11.5t-71 -37.5q-35 -28 -51 -60.5t-16 -72.5q0 -61 41 -105l436 -483q96 -107 96 -252q0 -150 -106 -260q-105 -111 -250 -111q-78 0 -139.5 26t-112.5 77v-68h-107z" />
<glyph unicode="T" horiz-adv-x="885" d="M104 1253v181h717v-181h-108v70h-146v-1212h68v-111h-344v111h67v1212h-145v-70h-109z" />
<glyph unicode="U" horiz-adv-x="1028" d="M106 1323v113h347v-113h-68v-1094q0 -31 12 -58.5t32.5 -48t48 -32.5t59.5 -12q30 0 56.5 12t46.5 32.5t32 48t12 58.5v1094h-68v113h351v-113h-70v-987q0 -153 -106 -262t-254 -109q-153 0 -258 109q-54 55 -79.5 119.5t-25.5 142.5v987h-68z" />
<glyph unicode="V" horiz-adv-x="1141" d="M63 1323v111h392v-111h-76l258 -979l258 979h-78v111h303v-111h-110l-348 -1323h-158l-350 1323h-91z" />
<glyph unicode="W" horiz-adv-x="1706" d="M63 1323v111h398v-111h-78l262 -979l162 604l-100 375h-95v111h398v-111h-76l262 -979l260 979h-78v111h305v-111h-110l-352 -1323h-160l-195 729l-196 -729h-160l-354 1323h-93z" />
<glyph unicode="X" horiz-adv-x="1028" d="M106 0v111h74l242 596l-242 616h-74v111h363v-111h-59l178 -451l178 451h-57v111h258v-111h-76l-246 -592l246 -620h76v-111h-367v111h57l-178 454l-178 -454h61v-111h-256z" />
<glyph unicode="Y" horiz-adv-x="944" d="M63 1323v111h365v-111h-61l178 -451l178 451h-57v111h258v-111h-76l-250 -602v-610h68v-111h-347v111h68v583l-250 629h-74z" />
<glyph unicode="Z" d="M147 0v111h72l352 1212h-317v-70h-107v181h717v-111h-76l-352 -1212h318v69h110v-180h-717z" />
<glyph unicode="[" horiz-adv-x="522" d="M135 -174v1614h287v-115h-156v-1388h156v-111h-287z" />
<glyph unicode="\" horiz-adv-x="870" d="M98 1352l129 51l584 -1493l-129 -51z" />
<glyph unicode="]" horiz-adv-x="522" d="M135 -63h158v1388h-158v115h287v-1614h-287v111z" />
<glyph unicode="^" horiz-adv-x="842" d="M139 690l240 592h125l237 -592l-131 -51l-170 426l-170 -426z" />
<glyph unicode="_" horiz-adv-x="807" d="M0 0v106h807v-106h-807z" />
<glyph unicode="`" horiz-adv-x="479" d="M115 1231h137l127 -215h-100z" />
<glyph unicode="a" horiz-adv-x="999" d="M147 332v69q0 150 107 256q54 56 116.5 82.5t137.5 26.5q82 0 149 -49v133q0 31 -12 58.5t-32 48t-47 32.5t-58 12q-108 0 -178 -73q-37 -35 -55.5 -87.5t-18.5 -115.5h-109v352h109v-67q100 102 252 102q146 0 252 -108q106 -107 106 -259v-634h70v-111h-227v63 q-38 -45 -91 -71.5t-110 -26.5q-75 0 -137.5 27.5t-116.5 81.5q-107 108 -107 258zM358 227q0 -31 12 -58.5t32.5 -48t47.5 -32.5t58 -12t58 12t47 32.5t32 48t12 58.5v277q0 31 -12 59t-32 48t-47 32t-58 12t-58 -12t-47.5 -32t-32.5 -48t-12 -59v-277z" />
<glyph unicode="b" horiz-adv-x="999" d="M104 0v111h68v1284h-68v112h279v-434q32 26 69.5 38.5t79.5 12.5q75 0 137.5 -28.5t116.5 -83.5q54 -56 80.5 -119.5t26.5 -140.5v-416q0 -78 -26.5 -141t-80.5 -119q-107 -111 -254 -111q-60 0 -112 26.5t-86 71.5v-63h-230zM383 229q0 -31 12 -58.5t32 -48t47.5 -32.5 t57.5 -12q31 0 58 12t47.5 32.5t32.5 48t12 58.5v629q0 31 -12 58.5t-32.5 48.5t-47.5 33t-58 12q-30 0 -57.5 -12t-47.5 -33t-32 -48.5t-12 -58.5v-629z" />
<glyph unicode="c" d="M147 332v413q0 153 103 259q110 108 256 108q74 0 137 -25.5t111 -76.5v67h110v-352h-110q0 63 -18.5 115.5t-53.5 87.5q-35 37 -80 55t-96 18q-31 0 -58 -12t-47.5 -32.5t-32.5 -48t-12 -58.5v-623q0 -31 12 -58.5t32.5 -48t47.5 -32.5t58 -12q51 0 96 19t80 55 q72 75 72 202h110v-352h-110v68q-48 -51 -111 -77t-137 -26q-149 0 -256 107q-53 55 -78 119.5t-25 140.5z" />
<glyph unicode="d" horiz-adv-x="999" d="M147 336v416q0 77 25.5 140.5t79.5 119.5q54 55 117.5 83.5t138.5 28.5q83 0 149 -51v322h-67v112h276v-1396h70v-111h-227v63q-38 -45 -90 -71.5t-111 -26.5q-75 0 -138.5 26.5t-117.5 82.5q-54 55 -79.5 119.5t-25.5 142.5zM358 229q0 -31 12 -58.5t32.5 -48 t47.5 -32.5t58 -12t58 12t47 32.5t32 48t12 58.5v629q0 31 -12 58.5t-32 48.5t-47 33t-58 12t-58 -12t-47.5 -33t-32.5 -48.5t-12 -58.5v-629z" />
<glyph unicode="e" d="M147 332v413q0 153 103 259q110 108 256 108q74 0 135.5 -27t114.5 -81q108 -110 108 -259v-194h-508v-324q0 -31 12 -58.5t32.5 -48t47.5 -32.5t58 -12q51 0 96 19t80 55q72 75 72 202h110v-352h-110v68q-48 -51 -111 -77t-137 -26q-145 0 -254 109q-105 109 -105 258z M356 664h297v186q0 31 -11.5 58.5t-32 48t-47 32.5t-56.5 12q-31 0 -58 -12t-47.5 -32.5t-32.5 -48t-12 -58.5v-186z" />
<glyph unicode="f" horiz-adv-x="594" d="M102 0v111h64v553h-64v110h64v397q0 76 25.5 140.5t76.5 120.5q101 108 264 108v-110q-34 0 -63.5 -12.5t-51.5 -33.5t-35 -49t-13 -59v-502h163v-110h-163v-553h65v-111h-332z" />
<glyph unicode="g" horiz-adv-x="999" d="M147 336v416q0 150 107 260q54 55 116.5 82.5t137.5 27.5q59 0 111 -26.5t90 -71.5v63h227v-112h-70v-989q0 -151 -106 -260t-273 -109v111q35 0 66 12t54 33t36.5 48.5t13.5 59.5v133q-66 -49 -149 -49q-75 0 -137.5 27.5t-116.5 83.5t-80.5 119t-26.5 141zM358 229 q0 -31 12 -58.5t32.5 -48t47.5 -32.5t58 -12t58 12t47 32.5t32 48t12 58.5v627q0 31 -12 59t-32 49t-47 33.5t-58 12.5t-58 -12.5t-47.5 -33.5t-32.5 -49t-12 -59v-627z" />
<glyph unicode="h" horiz-adv-x="1028" d="M106 0v111h68v1284h-68v110h347v-110h-68v-322q64 49 152 49q146 0 254 -110q106 -110 106 -260v-641h70v-111h-351v111h68v745q0 31 -12 59t-32 49t-46.5 33.5t-56.5 12.5q-32 0 -59.5 -12.5t-48 -33.5t-32.5 -49t-12 -59v-745h68v-111h-347z" />
<glyph unicode="i" horiz-adv-x="481" d="M98 0v111h66v864h-66v110h260v-974h64v-111h-324zM131 1325q0 31 10 57t27.5 45t41 30t50.5 11q28 0 52 -11t41.5 -30t27.5 -45t10 -57q0 -29 -10 -55t-27.5 -45t-41.5 -30t-52 -11q-27 0 -50.5 11t-41 30t-27.5 45t-10 55z" />
<glyph unicode="j" horiz-adv-x="496" d="M4 -272q33 0 62.5 12t51.5 33t35 48.5t13 59.5v1100h-64v113h332v-113h-65v-995q0 -78 -25.5 -141.5t-79.5 -118.5q-51 -57 -115 -84t-145 -27v113zM135 1335q0 30 10 56t28 45.5t42 31t51 11.5q28 0 53 -11.5t43 -31t28.5 -45.5t10.5 -56q0 -31 -10.5 -57t-28.5 -45 t-43 -30t-53 -11q-27 0 -51 11t-42 30t-28 45t-10 57z" />
<glyph unicode="k" horiz-adv-x="1028" d="M106 0v111h68v1212h-68v111h347v-111h-68v-821l367 473h-41v110h256v-110h-82l-236 -303l242 -561h76v-111h-359v111h58l-160 376l-121 -155v-221h68v-111h-347z" />
<glyph unicode="l" horiz-adv-x="481" d="M98 0v111h66v1284h-66v110h260v-1394h64v-111h-324z" />
<glyph unicode="m" horiz-adv-x="1569" d="M106 0v111h70v856h-70v110h234v-65q37 46 90 72t115 26q166 0 262 -129q88 129 260 129q75 0 139.5 -26.5t118.5 -82.5q54 -54 82.5 -117t28.5 -139v-634h69v-111h-354v111h68v739q0 31 -12 58t-32.5 47t-48.5 32t-59 12q-32 0 -60 -12t-49 -32t-33 -47t-12 -58v-739h68 v-111h-352v111h67v739q0 31 -12 58t-32 47t-48 32t-59 12q-32 0 -59.5 -12t-48 -32t-32.5 -47t-12 -58v-739h68v-111h-355z" />
<glyph unicode="n" horiz-adv-x="1028" d="M106 0v111h68v856h-68v110h228v-65q35 46 88 72t115 26q74 0 137 -26.5t117 -82.5q106 -106 106 -256v-634h70v-111h-351v111h68v739q0 31 -12 58t-32 47t-46.5 32t-56.5 12q-32 0 -59.5 -12t-48 -32t-32.5 -47t-12 -58v-739h68v-111h-347z" />
<glyph unicode="o" d="M147 332v413q0 153 103 259q110 108 256 108q74 0 135.5 -27t114.5 -81q108 -110 108 -259v-413q0 -149 -108 -260q-104 -107 -250 -107q-149 0 -256 107q-53 55 -78 119.5t-25 140.5zM356 227q0 -31 12 -58.5t32.5 -48t47.5 -32.5t58 -12q30 0 56.5 12t47 32.5t32 48 t11.5 58.5v623q0 31 -11.5 58.5t-32 48t-47 32.5t-56.5 12q-31 0 -58 -12t-47.5 -32.5t-32.5 -48t-12 -58.5v-623z" />
<glyph unicode="p" horiz-adv-x="999" d="M104 -238h68v1213h-68v110h230v-63q34 45 86 72.5t112 27.5q75 0 137.5 -28.5t116.5 -83.5q107 -107 107 -258v-416q0 -154 -107 -262q-105 -109 -254 -109q-83 0 -149 49v-252h68v-110h-347v110zM383 229q0 -31 12 -58.5t32 -48t47.5 -32.5t57.5 -12q31 0 58 12 t47.5 32.5t32.5 48t12 58.5v627q0 31 -12 59t-32.5 49t-47.5 33.5t-58 12.5q-30 0 -57.5 -12.5t-47.5 -33.5t-32 -49t-12 -59v-627z" />
<glyph unicode="q" horiz-adv-x="999" d="M147 336v416q0 151 107 258q54 55 116.5 83.5t137.5 28.5q59 0 111 -27.5t90 -72.5v63h227v-110h-70v-1213h70v-110h-279v362q-66 -49 -149 -49q-75 0 -137.5 27.5t-116.5 83.5t-80.5 119t-26.5 141zM358 229q0 -31 12 -58.5t32.5 -48t47.5 -32.5t58 -12t58 12t47 32.5 t32 48t12 58.5v627q0 31 -12 59t-32 49t-47 33.5t-58 12.5t-58 -12.5t-47.5 -33.5t-32.5 -49t-12 -59v-627z" />
<glyph unicode="r" horiz-adv-x="850" d="M104 0v111h68v856h-68v110h209v-67q73 100 215 100q42 0 79 -11t71 -36v14h106v-250h-106q0 36 -12 67.5t-33 55t-48 36.5t-57 13t-57 -12t-47.5 -32t-32.5 -47t-12 -58v-739h70v-111h-345z" />
<glyph unicode="s" d="M147 0v352h107q3 -124 78 -202h-2q72 -74 176 -74q83 0 147 43h-2q72 43 72 121q0 101 -137 153q-69 28 -142.5 55.5t-142.5 53.5q-77 42 -114 107t-37 153q0 77 24.5 139.5t77.5 112.5q109 98 254 98q74 0 137 -25.5t111 -76.5v67h110v-352h-110q-3 127 -74 201 q-72 75 -174 75q-87 0 -150 -40h2q-37 -22 -53 -53.5t-16 -69.5q0 -99 135 -154q68 -28 141.5 -56t143.5 -53q153 -83 153 -260q0 -75 -26 -138.5t-80 -113.5q-53 -49 -114.5 -73.5t-135.5 -24.5q-78 0 -139.5 26t-112.5 77v-68h-107z" />
<glyph unicode="t" horiz-adv-x="594" d="M102 975v110h64v238h-64v113h332v-113h-65v-238h163v-110h-163v-746q0 -31 13 -58.5t35 -48t51.5 -32.5t63.5 -12v-92l-20 -21q-142 0 -244 111q-51 56 -76.5 119t-25.5 141v639h-64z" />
<glyph unicode="u" horiz-adv-x="1028" d="M106 967v110h279v-850q0 -31 12 -58.5t32.5 -48t48 -32.5t59.5 -12q30 0 56.5 12t46.5 32.5t32 48t12 58.5v740h-68v110h281v-966h70v-111h-230v63q-38 -45 -90.5 -71.5t-109.5 -26.5q-149 0 -256 109q-107 108 -107 258v635h-68z" />
<glyph unicode="v" horiz-adv-x="1081" d="M63 965v110h392v-110h-76l229 -701l226 701h-78v110h303v-110h-111l-313 -965h-166l-313 965h-93z" />
<glyph unicode="w" horiz-adv-x="1616" d="M63 965v110h398v-110h-78l233 -703l146 449l-82 254h-96v110h397v-110h-76l234 -701l229 701h-80v110h307v-110h-112l-318 -965h-168l-176 537l-178 -537h-166l-319 965h-95z" />
<glyph unicode="x" horiz-adv-x="1028" d="M106 0v111h76l236 417l-238 437h-74v110h371v-110h-53l166 -308l174 308h-55v110h258v-110h-80l-236 -418l238 -436h78v-111h-389v111h69l-168 307l-172 -307h55v-111h-256z" />
<glyph unicode="y" horiz-adv-x="999" d="M104 975v110h279v-856q0 -31 12 -58.5t32 -48t47.5 -32.5t57.5 -12q31 0 58 12t47.5 32.5t32.5 48t12 58.5v746h-68v110h279v-1099q0 -152 -107 -260q-107 -109 -274 -109v111q35 0 66 12t54 33t36.5 48.5t13.5 59.5v133q-32 -24 -69 -36.5t-81 -12.5q-147 0 -253 111 q-54 56 -80.5 119t-26.5 141v639h-68z" />
<glyph unicode="z" d="M147 0v111h74l340 854h-307v-70h-107v180h717v-110h-76l-337 -854h303v67h110v-178h-717z" />
<glyph unicode="{" horiz-adv-x="786" d="M145 578v110q34 0 64 12t52 33t35 49t13 60v262q0 77 27 141.5t78 120.5q102 109 268 109v-111q-34 0 -64 -12.5t-52.5 -33.5t-36 -49t-13.5 -59v-262q0 -49 -11.5 -95.5t-33.5 -87t-52.5 -74.5t-68.5 -58q38 -26 68.5 -60t52.5 -75t33.5 -87t11.5 -94v-262 q0 -32 13.5 -59.5t36 -48.5t52.5 -33t64 -12v-90l-20 -21q-146 0 -248 109q-51 55 -78 119.5t-27 142.5v260q0 32 -13 60.5t-35 49.5t-52 33.5t-64 12.5z" />
<glyph unicode="|" horiz-adv-x="309" d="M117 -174v1614h106v-1614h-106z" />
<glyph unicode="}" horiz-adv-x="786" d="M145 -98q34 0 64 12t52 33t35 48.5t13 59.5v262q0 48 11.5 94t33.5 87t53 75t70 60q-39 24 -70 58t-53 74.5t-33.5 87t-11.5 95.5v262q0 31 -13 59t-35 49t-52 33.5t-64 12.5v111q82 0 148 -26.5t119 -82.5q51 -56 77.5 -120.5t26.5 -141.5v-262q0 -32 13.5 -60t36 -49 t52.5 -33t64 -12v-92l-20 -18q-30 0 -56.5 -12.5t-46.5 -33.5t-31.5 -49.5t-11.5 -60.5v-260q0 -78 -26.5 -142.5t-77.5 -119.5q-103 -109 -267 -109v111z" />
<glyph unicode="~" horiz-adv-x="1061" d="M139 981q120 156 312 156q102 0 200 -56q20 -11 41.5 -15.5t42.5 -4.5q37 0 72.5 18t62.5 54l76 -43l4 -25q-107 -139 -301 -139q-104 0 -198 55q-41 20 -84 20q-82 0 -138 -71z" />
<glyph unicode="&#xa1;" horiz-adv-x="561" d="M137 -63h66l30 974h132l30 -974h66v-111h-324v111zM186 1135q0 26 9 48.5t24 39.5t35.5 27t44.5 10q25 0 46 -10t36.5 -27t24 -39.5t8.5 -48.5t-8.5 -49t-24 -40t-36.5 -26.5t-46 -9.5q-24 0 -44.5 9.5t-35.5 26.5t-24 40t-9 49z" />
<glyph unicode="&#xa2;" d="M147 682v418q0 134 80 235q39 47 85.5 78t105.5 45v150h74v-140h14h12v140h76v-150q110 -27 186 -123q44 -51 64 -110t20 -125q0 -26 -9.5 -49t-26.5 -40t-39.5 -26.5t-47.5 -9.5t-47 9.5t-38 26.5t-25.5 40t-9.5 49q0 49 29.5 84t72.5 41q-22 43 -53 72t-76 44v-899 q35 15 64.5 40.5t50.5 59.5t33 75t12 85h88l22 -20q0 -66 -20 -125t-64 -108q-38 -51 -85 -82t-101 -43v-150h-76v139h-12h-14v-139h-74v150q-59 12 -105.5 43.5t-85.5 81.5q-40 49 -60 108t-20 125zM356 578q0 -85 62 -127v878q-31 -22 -46.5 -52.5t-15.5 -72.5v-626z M492 424h14h12v932h-12h-7t-7 -2v-930z" />
<glyph unicode="&#xa3;" horiz-adv-x="999" d="M104 0v111h68v551h-68v110h68v328q0 150 107 260q54 56 116.5 82t136.5 26q76 0 139.5 -24.5t112.5 -77.5v70h109v-357h-109q0 65 -18 116.5t-55 86.5q-35 37 -80.5 56.5t-98.5 19.5q-30 0 -57.5 -12.5t-47.5 -33.5t-32 -49t-12 -59v-432h340v-110h-340v-551h401v69h109 v-180h-789z" />
<glyph unicode="&#xa4;" horiz-adv-x="1108" d="M106 522v146h170v98h-170v145h170v189q0 77 25.5 140.5t79.5 119.5q107 110 256 110q152 0 256 -104v70h108v-355h-108q0 63 -19.5 114.5t-54.5 88.5q-74 74 -182 74q-30 0 -57 -12t-48 -33t-33 -48.5t-12 -58.5v-295h342v-145h-342v-98h342v-146h-342v-293 q0 -31 12 -58.5t33 -48t48 -32.5t57 -12q109 0 182 74q35 37 54.5 88t19.5 114h108v-354h-108v68q-53 -51 -116 -77t-140 -26q-74 0 -138 26.5t-118 82.5q-54 55 -79.5 119.5t-25.5 142.5v186h-170z" />
<glyph unicode="&#xa5;" horiz-adv-x="1114" d="M147 1323v111h365v-111h-59l178 -451l178 451h-57v111h256v-111h-74l-229 -551h233v-145h-254v-99h254v-145h-254v-272h68v-111h-349v111h68v272h-254v145h254v99h-254v145h221l-217 551h-74z" />
<glyph unicode="&#xa6;" horiz-adv-x="309" d="M117 -174v723h106v-723h-106zM117 715v725h106v-725h-106z" />
<glyph unicode="&#xa7;" d="M147 -176v356h107q2 -62 20.5 -113t55.5 -90q75 -75 178 -75q83 0 147 43h-2q35 21 52.5 52.5t17.5 70.5q0 51 -33 89t-102 66t-143 56.5t-142 54.5q-153 85 -153 262q0 87 32 156t97 118q-132 86 -132 250q0 156 103 252q109 103 256 103q74 0 137 -26.5t111 -80.5v72 h110v-357h-110q-3 126 -74 203q-75 78 -174 78q-43 0 -81 -10.5t-69 -32.5h2q-37 -22 -53 -53.5t-16 -71.5q0 -98 135 -156q68 -26 141.5 -54t143.5 -54q153 -87 153 -264q0 -171 -131 -275q66 -43 99.5 -106t33.5 -142q0 -155 -106 -254q-104 -100 -250 -100q-77 0 -140 25 t-114 78v-70h-107zM291 672q0 -34 14 -62t45 -53q22 -15 55 -30t78 -33q23 -8 56.5 -19.5t78.5 -25.5q105 42 105 145q0 32 -16 61t-45 54q-22 15 -55.5 29.5t-80.5 31.5q-24 8 -56 19t-77 26q-54 -22 -78 -57t-24 -86z" />
<glyph unicode="&#xa8;" horiz-adv-x="713" d="M143 1102q0 18 7.5 34t21.5 28.5t32.5 20t41.5 7.5q21 0 39.5 -7t32 -19t21 -28.5t7.5 -35.5t-7.5 -35.5t-21 -28.5t-32 -19t-39.5 -7q-45 0 -74 26.5t-29 63.5zM406 1102q0 18 8 34t21.5 28.5t32.5 20t40 7.5t39.5 -7t32 -19t21 -28.5t7.5 -35.5t-7.5 -35.5t-21 -28.5 t-32 -19t-39.5 -7q-43 0 -72.5 26.5t-29.5 63.5z" />
<glyph unicode="&#xa9;" d="M147 332v413q0 153 103 259q110 108 256 108q74 0 135.5 -27t114.5 -81q108 -110 108 -259v-413q0 -149 -108 -260q-104 -107 -250 -107q-149 0 -256 107q-53 55 -78 119.5t-25 140.5zM254 332q0 -53 18.5 -99t55.5 -83q72 -74 178 -74q51 0 96 19t80 55q72 75 72 182 v413q0 54 -18.5 101t-53.5 82q-35 37 -80 55t-96 18q-53 0 -98 -18t-80 -55q-37 -35 -55.5 -82t-18.5 -101v-413zM315 350v379q0 41 15 76.5t40.5 62t60.5 41.5t75 15q32 0 61 -10.5t54 -30.5v22h73v-196h-73q0 28 -9.5 53t-25 43.5t-36.5 29.5t-44 11q-28 0 -47 -19 t-19 -47v-483q0 -26 19 -46t47 -20q23 0 44 11t36.5 29.5t25 43.5t9.5 54h73v-197h-73v21q-25 -20 -54 -28.5t-61 -8.5q-40 0 -75 15t-60.5 41.5t-40.5 61.5t-15 76z" />
<glyph unicode="&#xaa;" horiz-adv-x="842" d="M145 848v51q0 57 20 105t60 90q81 82 191 82q56 0 106 -33v90q0 21 -8.5 40.5t-23 34t-34 23t-40.5 8.5q-77 0 -129 -55q-51 -51 -51 -149h-91v272h91v-45q70 70 180 70q108 0 190 -82q80 -82 80 -195v-465h51v-94h-178v41q-28 -31 -64.5 -48.5t-78.5 -17.5 q-110 0 -191 82q-40 42 -60 90t-20 105zM309 770q0 -21 8.5 -40.5t23 -34t34 -23t41.5 -8.5q21 0 40.5 8.5t34 23t23 34t8.5 40.5v207q0 21 -8.5 40.5t-23 34t-34 23t-40.5 8.5q-22 0 -41.5 -8.5t-34 -23t-23 -34t-8.5 -40.5v-207z" />
<glyph unicode="&#xab;" horiz-adv-x="1139" d="M150 225v123l370 236l76 -119l-281 -178l281 -178l-76 -117zM594 225v123l369 236l77 -119l-280 -178l280 -178l-77 -117z" />
<glyph unicode="&#xac;" horiz-adv-x="786" d="M145 403v125h537v-215h-139v90h-398z" />
<glyph unicode="&#xad;" horiz-adv-x="786" d="M145 346v107h537v-107h-537z" />
<glyph unicode="&#xae;" d="M147 332v413q0 153 103 259q110 108 256 108q74 0 135.5 -27t114.5 -81q108 -110 108 -259v-413q0 -149 -108 -260q-104 -107 -250 -107q-149 0 -256 107q-53 55 -78 119.5t-25 140.5zM254 332q0 -42 11.5 -79.5t33.5 -68.5v66h35v579h-35v64q-22 -32 -33.5 -69 t-11.5 -79v-413zM307 172q5 -6 10.5 -11t10.5 -11q72 -74 178 -74q66 0 117.5 26t85.5 80q-54 22 -88.5 71.5t-34.5 111.5v71q0 26 -19 46t-45 20h-65v-252h35v-78h-185zM307 905h207q39 0 73 -15t59.5 -41.5t40.5 -62t15 -75.5v-17q0 -105 -79 -153q40 -25 64 -66t24 -92 v-70q0 -21 8.5 -36t25.5 -21q5 17 7 36.5t2 39.5v413q0 54 -18.5 101t-53.5 82q-35 37 -80 55t-96 18q-53 0 -98 -18t-80 -55q-5 -5 -10.5 -11.5t-10.5 -11.5zM457 578h57q26 0 45 18.5t19 46.5v121q0 26 -19 45.5t-45 19.5h-57v-251z" />
<glyph unicode="&#xaf;" horiz-adv-x="786" d="M145 346v107h537v-107h-537z" />
<glyph unicode="&#xb0;" horiz-adv-x="637" d="M141 1231q0 40 15 76t41.5 62.5t62.5 42t78 15.5t78 -15.5t63 -42t42.5 -62.5t15.5 -76q0 -41 -15.5 -77t-42.5 -62.5t-63 -42t-78 -15.5t-78 15.5t-62.5 42t-41.5 62.5t-15 77zM244 1231q0 -19 7.5 -36t20.5 -29.5t30 -19.5t36 -7q20 0 37 7t30 19.5t20 29.5t7 36t-7 36 t-20 30t-30 20.5t-37 7.5q-19 0 -36 -7.5t-30 -20.5t-20.5 -30t-7.5 -36z" />
<glyph unicode="&#xb1;" horiz-adv-x="786" d="M145 0v143h537v-143h-537zM145 459v143h199v205h137v-205h201v-143h-201v-205h-137v205h-199z" />
<glyph unicode="&#xb2;" horiz-adv-x="600" d="M139 780q0 158 74 285q15 23 48.5 67t84.5 107q66 78 66 123q0 18 -8 32t-21 24.5t-30 16t-34 5.5q-22 0 -41.5 -11t-34.5 -29.5t-24 -43.5t-10 -53h-70v194h70v-20q23 17 50.5 26.5t59.5 9.5q37 0 69.5 -15t57 -40.5t38.5 -60t14 -72.5q0 -75 -66 -166 q-15 -18 -29.5 -36.5t-29.5 -37.5q-14 -20 -28 -39t-28 -36q-26 -39 -40 -79.5t-19 -78.5h170v35h70v-107h-359z" />
<glyph unicode="&#xb3;" horiz-adv-x="600" d="M139 780v193h70q0 -29 9 -53.5t24 -42.5t35 -28.5t42 -10.5q25 0 42.5 18.5t17.5 44.5v170q0 28 -17.5 47t-42.5 19h-59v73h59q25 0 42.5 19t17.5 45v102q0 26 -17.5 45t-42.5 19q-22 0 -42 -10.5t-35 -29t-24 -43t-9 -52.5h-70v192h70v-18q23 17 50.5 27t59.5 10 q37 0 69.5 -15t57 -41t38.5 -61t14 -74q0 -101 -72 -151q37 -26 54.5 -65.5t17.5 -88.5v-68q0 -39 -14 -73.5t-38.5 -60t-57 -40t-69.5 -14.5q-32 0 -59.5 8t-50.5 27v-19h-70z" />
<glyph unicode="&#xb4;" horiz-adv-x="479" d="M135 1016l127 215h137l-163 -215h-101z" />
<glyph unicode="&#xb6;" horiz-adv-x="1331" d="M150 1036v35q0 75 26 139.5t82 120.5q108 111 256 111h711v-113h-172v-1679h-215v1679h-129v-1679h-215v1016q-70 3 -128 31t-108 79q-56 56 -82 119.5t-26 140.5z" />
<glyph unicode="&#xb7;" horiz-adv-x="442" d="M133 465q0 22 8 41.5t22 34.5t34 23.5t43 8.5q22 0 41.5 -8.5t34.5 -23.5t23.5 -34.5t8.5 -41.5q0 -21 -8.5 -40.5t-23.5 -34.5t-34.5 -23.5t-41.5 -8.5q-23 0 -43 8.5t-34 23.5t-22 34.5t-8 40.5z" />
<glyph unicode="&#xb8;" horiz-adv-x="471" d="M127 -324l25 103h92q14 0 23 12t9 29q0 35 -32 35h-99l37 217h99l-21 -115q50 -8 82.5 -45.5t32.5 -91.5q0 -29 -10 -55t-28 -45.5t-42 -31.5t-51 -12h-117z" />
<glyph unicode="&#xb9;" horiz-adv-x="379" d="M125 778v74h29v567h-29v76h135v-643h27v-74h-162z" />
<glyph unicode="&#xba;" horiz-adv-x="786" d="M145 848v307q0 116 78 195q42 42 88.5 62t102.5 20q109 0 188 -82q80 -82 80 -195v-307q0 -57 -20 -105t-60 -90q-79 -82 -188 -82q-56 0 -102.5 20t-88.5 62q-78 82 -78 195zM307 770q0 -21 8.5 -40.5t23 -34t34 -23t41.5 -8.5q21 0 39.5 8.5t33 23t23 34t8.5 40.5v463 q0 21 -8.5 40.5t-23 34t-33 23t-39.5 8.5q-22 0 -41.5 -8.5t-34 -23t-23 -34t-8.5 -40.5v-463z" />
<glyph unicode="&#xbb;" horiz-adv-x="1139" d="M139 109l281 178l-281 178l80 119l371 -236v-123l-371 -233zM584 109l280 178l-280 178l80 119l370 -236v-123l-370 -233z" />
<glyph unicode="&#xbc;" horiz-adv-x="786" d="M145 666v110h537v-110h-537zM211 35v61l225 506h113v-491h65v-76h-65v-98h33v-76h-189v76h33v98h-215zM301 111h125v282zM319 838v77h31v588h-31v78h156v-666h33v-77h-189z" />
<glyph unicode="&#xbd;" horiz-adv-x="786" d="M145 666v110h537v-110h-537zM227 -139q0 81 19.5 155t56.5 140q16 24 50.5 69.5t86.5 108.5q34 42 51 73t17 56q0 18 -8 32t-21.5 24.5t-30 16t-34.5 5.5q-24 0 -44.5 -11t-36 -30t-24 -44.5t-8.5 -54.5h-74v201h74v-22q45 38 113 38q38 0 71.5 -15t58.5 -41.5 t39.5 -62.5t14.5 -77q0 -73 -70 -170q-15 -19 -29.5 -37t-29.5 -37q-14 -21 -28.5 -41.5t-28.5 -36.5q-28 -42 -43.5 -81.5t-18.5 -81.5h174v34h74v-110h-371zM319 838v77h31v588h-31v78h156v-666h33v-77h-189z" />
<glyph unicode="&#xbe;" horiz-adv-x="786" d="M145 666v110h537v-110h-537zM211 35v61l225 506h113v-491h65v-76h-65v-98h33v-76h-189v76h33v98h-215zM227 838v200h74q0 -28 8.5 -53.5t24 -44.5t36 -30t44.5 -11q26 0 44.5 19.5t18.5 48.5v172q0 29 -18.5 48t-44.5 19h-64v76h64q26 0 44.5 20t18.5 48v104 q0 28 -18.5 48t-44.5 20q-24 0 -44.5 -11t-36 -30.5t-24 -45t-8.5 -53.5h-74v199h74v-22q23 18 51 28t62 10q38 0 71.5 -15t58.5 -41.5t39.5 -62t14.5 -75.5q0 -53 -18.5 -91.5t-55.5 -66.5q74 -56 74 -158v-69q0 -41 -14.5 -76.5t-39.5 -62t-58.5 -41.5t-71.5 -15 q-34 0 -62 8.5t-51 28.5v-22h-74zM301 111h125v282z" />
<glyph unicode="&#xbf;" horiz-adv-x="987" d="M147 160v157q0 150 105 261q54 54 117 81t137 27q86 0 151 -53l33 278h139l37 -512h-213q0 36 -11.5 68t-31.5 56t-46.5 38t-57.5 14t-58 -12t-47.5 -33t-32.5 -49t-12 -59v-367q0 -32 12 -59.5t32.5 -47.5t47.5 -32t58 -12q101 0 174 73q37 41 55.5 90.5t20.5 112.5h108 v-354h-108v70q-99 -105 -250 -105q-146 0 -254 111q-105 106 -105 258zM637 1135q0 26 9.5 48.5t26.5 39.5t39 27t48 10q25 0 47 -10t38.5 -27t26 -39.5t9.5 -48.5t-9.5 -48.5t-26 -39.5t-38.5 -27t-47 -10q-26 0 -48 10t-39 27t-26.5 39.5t-9.5 48.5z" />
<glyph unicode="&#xc0;" horiz-adv-x="1141" d="M63 0v111h109l350 1329h158l346 -1329h94v-111h-393v111h78l-64 239h-391l-61 -239h76v-111h-302zM369 1755h157l142 -252h-113zM379 463h334l-166 633z" />
<glyph unicode="&#xc1;" horiz-adv-x="1141" d="M63 0v111h109l350 1329h158l346 -1329h94v-111h-393v111h78l-64 239h-391l-61 -239h76v-111h-302zM379 463h334l-166 633zM528 1503l146 252h157l-186 -252h-117z" />
<glyph unicode="&#xc2;" horiz-adv-x="1141" d="M63 0v111h109l350 1329h158l346 -1329h94v-111h-393v111h78l-64 239h-391l-61 -239h76v-111h-302zM371 1503l166 252h127l165 -252h-155l-74 115l-74 -115h-155zM379 463h334l-166 633z" />
<glyph unicode="&#xc3;" horiz-adv-x="1141" d="M63 0v111h109l350 1329h158l346 -1329h94v-111h-393v111h78l-64 239h-391l-61 -239h76v-111h-302zM281 1556q49 73 108.5 107.5t134.5 34.5q34 0 67.5 -8t67.5 -27q61 -31 80 -31q31 0 56 17t47 49l61 -41l6 -31q-43 -62 -100.5 -92.5t-132.5 -30.5q-34 0 -66.5 8 t-66.5 27q-29 16 -49.5 24.5t-32.5 8.5q-57 0 -105 -66zM379 461h334l-166 635z" />
<glyph unicode="&#xc4;" horiz-adv-x="1141" d="M63 0v111h109l350 1329h158l346 -1329h94v-111h-393v111h78l-64 239h-391l-61 -239h76v-111h-302zM354 1612q0 21 8.5 40.5t23 34.5t34.5 24t43 9q22 0 41.5 -8.5t33.5 -23t22.5 -34t8.5 -42.5t-8.5 -43t-22.5 -34.5t-33.5 -23t-41.5 -8.5q-23 0 -43 9t-34.5 24t-23 34.5 t-8.5 41.5zM379 463h334l-166 633zM631 1612q0 21 8.5 40.5t22.5 34.5t33.5 24t41.5 9t42 -8.5t34 -23t22.5 -34t8.5 -42.5t-8.5 -43t-22.5 -34.5t-34 -23t-42 -8.5t-41.5 9t-33.5 24t-22.5 34.5t-8.5 41.5z" />
<glyph unicode="&#xc5;" horiz-adv-x="1141" d="M63 0v111h109l326 1243q-107 58 -107 188q0 87 60 150q63 63 149 63q45 0 81 -16t67 -47v2v-2h2h-2q30 -31 45.5 -68t15.5 -82q0 -131 -109 -188l326 -1243h94v-111h-393v111h78l-64 239h-391l-61 -239h76v-111h-302zM379 463h334l-166 633zM500 1542q0 -21 8 -39.5 t21.5 -32.5t31.5 -22t39 -8t39 8t31.5 22t21.5 32.5t8 39.5t-8 39.5t-21.5 32.5t-31.5 22.5t-39 8.5t-39 -8.5t-31.5 -22.5t-21.5 -32.5t-8 -39.5z" />
<glyph unicode="&#xc6;" horiz-adv-x="1696" d="M63 0v111h111l352 1323h162l230 -865v754h-70v111h737v-181h-110v70h-342v-551h167v70h111v-250h-111v70h-167v-551h342v69h110v-180h-848v111h78l-63 237h-398l-61 -237h78v-111h-308zM383 459h340l-170 631z" />
<glyph unicode="&#xc7;" d="M147 336v770q0 153 103 262q54 54 118 82.5t138 28.5t137 -27t111 -80v70h110v-357h-110q0 130 -72 205q-35 37 -80 56.5t-96 19.5q-31 0 -58 -12.5t-47.5 -33.5t-32.5 -49.5t-12 -60.5v-979q0 -32 12 -59.5t32.5 -48.5t47.5 -33t58 -12q51 0 96 19t80 55q72 75 72 204 h110v-356h-110v68q-88 -88 -209 -103l-4 -12q55 -8 90 -48.5t35 -99.5q0 -32 -11 -60t-30.5 -49t-45.5 -33.5t-57 -12.5h-129l29 112h100q16 0 26.5 12.5t10.5 30.5q0 37 -37 37h-110l22 129q-59 13 -108.5 42.5t-89.5 78.5q-89 107 -89 244z" />
<glyph unicode="&#xc8;" horiz-adv-x="999" d="M104 0v111h68v1218h-68v111h789v-180h-109v69h-401v-553h231v70h109v-252h-109v72h-231v-555h401v71h109v-182h-789zM293 1755h156l141 -252h-113z" />
<glyph unicode="&#xc9;" horiz-adv-x="999" d="M104 0v111h68v1218h-68v111h789v-180h-109v69h-401v-553h231v70h109v-252h-109v72h-231v-555h401v71h109v-182h-789zM451 1503l143 252h156l-185 -252h-114z" />
<glyph unicode="&#xca;" horiz-adv-x="999" d="M104 0v111h68v1218h-68v111h789v-180h-109v69h-401v-553h231v70h109v-252h-109v72h-231v-555h401v71h109v-182h-789zM295 1503l164 252h125l164 -252h-154l-72 115l-73 -115h-154z" />
<glyph unicode="&#xcb;" horiz-adv-x="999" d="M104 0v111h68v1216h-68v113h789v-183h-109v70h-401v-551h231v70h109v-252h-109v72h-231v-555h401v69h109v-180h-789zM293 1612q0 21 7.5 40.5t21.5 34.5t33 24t42 9q22 0 41.5 -8.5t33.5 -23t22 -34t8 -42.5t-8 -43t-22 -34.5t-33.5 -23t-41.5 -8.5q-23 0 -42 9t-33 24 t-21.5 34.5t-7.5 41.5zM563 1612q0 21 8 40.5t22 34.5t33 24t42 9q22 0 41.5 -8.5t33.5 -23t22.5 -34t8.5 -42.5t-8.5 -43t-22.5 -34.5t-33.5 -23t-41.5 -8.5q-23 0 -42 9t-33 24t-22 34.5t-8 41.5z" />
<glyph unicode="&#xcc;" horiz-adv-x="487" d="M49 1755h144l135 -252h-107zM100 0v111h64v1218h-64v111h326v-111h-64v-1218h64v-111h-326z" />
<glyph unicode="&#xcd;" horiz-adv-x="487" d="M100 0v111h64v1218h-64v111h326v-111h-64v-1218h64v-111h-326zM197 1503l135 252h145l-172 -252h-108z" />
<glyph unicode="&#xce;" horiz-adv-x="494" d="M49 1503l158 252h119l153 -252h-143l-72 115l-69 -115h-146zM100 0v111h64v1218h-64v111h330v-111h-65v-1218h65v-111h-330z" />
<glyph unicode="&#xcf;" horiz-adv-x="500" d="M35 1612q0 21 8 40.5t21.5 34.5t32.5 24t40 9q44 0 73.5 -31t29.5 -77q0 -47 -29.5 -78t-73.5 -31q-21 0 -40 9t-32.5 24t-21.5 34.5t-8 41.5zM102 0v111h64v1216h-64v113h334v-113h-65v-1216h65v-111h-334zM299 1612q0 21 7.5 40.5t21 34.5t32 24t39.5 9q45 0 74 -31 t29 -77q0 -47 -29 -78t-74 -31q-21 0 -39.5 9t-32 24t-21 34.5t-7.5 41.5z" />
<glyph unicode="&#xd0;" horiz-adv-x="999" d="M104 0v111h68v551h-68v110h68v551h-68v111h428q147 0 254 -109q107 -110 107 -260v-696q0 -153 -107 -263q-106 -106 -254 -106h-428zM383 111h149q31 0 58 12t47.5 33t32.5 48.5t12 59.5v903q0 32 -12 60.5t-32.5 49.5t-47.5 33.5t-58 12.5h-149v-551h170v-110h-170 v-551z" />
<glyph unicode="&#xd1;" horiz-adv-x="1028" d="M106 0v111h68v1216h-68v113h302l380 -1176v1063h-67v113h246v-113h-70v-1216h70v-111h-305l-379 1171v-1060h67v-111h-244zM219 1556q48 73 107.5 107.5t134.5 34.5q34 0 66.5 -8t66.5 -27q31 -16 50 -23.5t30 -7.5q59 0 102 66l60 -41l4 -31q-81 -123 -230 -123 q-34 0 -66.5 8t-64.5 27q-31 16 -51 24.5t-31 8.5q-56 0 -104 -66z" />
<glyph unicode="&#xd2;" d="M147 336v770q0 153 103 262q109 109 256 109q74 0 135.5 -27.5t114.5 -81.5q54 -56 81 -120.5t27 -141.5v-770q0 -151 -108 -262q-105 -111 -250 -111q-148 0 -256 111q-53 55 -78 121t-25 141zM279 1755h153l141 -250h-112zM356 231q0 -32 12 -59.5t32.5 -48.5t47.5 -33 t58 -12q30 0 56.5 12t47 33t32 48.5t11.5 59.5v979q0 32 -11.5 60.5t-32 49.5t-47 33.5t-56.5 12.5q-31 0 -58 -12.5t-47.5 -33.5t-32.5 -49.5t-12 -60.5v-979z" />
<glyph unicode="&#xd3;" d="M147 336v770q0 153 103 262q109 109 256 109q74 0 135.5 -27.5t114.5 -81.5q54 -56 81 -120.5t27 -141.5v-770q0 -151 -108 -262q-105 -111 -250 -111q-148 0 -256 111q-53 55 -78 121t-25 141zM356 231q0 -32 12 -59.5t32.5 -48.5t47.5 -33t58 -12q30 0 56.5 12t47 33 t32 48.5t11.5 59.5v979q0 32 -11.5 60.5t-32 49.5t-47 33.5t-56.5 12.5q-31 0 -58 -12.5t-47.5 -33.5t-32.5 -49.5t-12 -60.5v-979zM436 1505l142 250h153l-182 -250h-113z" />
<glyph unicode="&#xd4;" d="M147 336v770q0 153 103 262q109 109 256 109q74 0 135.5 -27.5t114.5 -81.5q54 -56 81 -120.5t27 -141.5v-770q0 -151 -108 -262q-105 -111 -250 -111q-148 0 -256 111q-53 55 -78 121t-25 141zM279 1505l163 250h125l162 -250h-151l-72 113l-74 -113h-153zM356 231 q0 -32 12 -59.5t32.5 -48.5t47.5 -33t58 -12q30 0 56.5 12t47 33t32 48.5t11.5 59.5v979q0 32 -11.5 60.5t-32 49.5t-47 33.5t-56.5 12.5q-31 0 -58 -12.5t-47.5 -33.5t-32.5 -49.5t-12 -60.5v-979z" />
<glyph unicode="&#xd5;" d="M147 336v770q0 151 103 260q108 111 256 111q145 0 250 -111q54 -56 81 -120.5t27 -139.5v-770q0 -151 -108 -262q-105 -111 -250 -111q-148 0 -256 111q-53 55 -78 121t-25 141zM193 1556q46 73 105.5 107.5t131.5 34.5q34 0 66.5 -7t66.5 -26q31 -17 50 -25t28 -8 q59 0 102 66l60 -41l6 -31q-43 -60 -99 -91.5t-130 -31.5q-32 0 -64.5 8.5t-64.5 28.5q-31 14 -51.5 22.5t-32.5 8.5q-58 0 -101 -66zM356 231q0 -32 12 -59.5t32.5 -48.5t47.5 -33t58 -12q30 0 56.5 12t47 33t32 48.5t11.5 59.5v979q0 31 -11.5 59t-32 49t-47 33.5 t-56.5 12.5q-31 0 -58 -12.5t-47.5 -33.5t-32.5 -49t-12 -59v-979z" />
<glyph unicode="&#xd6;" d="M147 336v770q0 151 103 260q108 111 256 111q145 0 250 -111q54 -56 81 -119.5t27 -140.5v-770q0 -151 -108 -262q-105 -111 -250 -111q-148 0 -256 111q-53 55 -78 121t-25 141zM264 1612q0 21 8 40.5t22 34.5t33 24t42 9q22 0 41.5 -8.5t33.5 -23t22.5 -34t8.5 -42.5 t-8.5 -42.5t-22.5 -34.5t-33.5 -23.5t-41.5 -8.5q-23 0 -42 9t-33 24t-22 34.5t-8 41.5zM356 231q0 -32 12 -59.5t32.5 -48.5t47.5 -33t58 -12q30 0 56.5 12t47 33t32 48.5t11.5 59.5v979q0 31 -11.5 59t-32 49t-47 33.5t-56.5 12.5q-31 0 -58 -12.5t-47.5 -33.5t-32.5 -49 t-12 -59v-979zM537 1612q0 21 7.5 40.5t21 34.5t32.5 24t41 9t41.5 -8.5t33.5 -23t22.5 -34t8.5 -42.5t-8.5 -42.5t-22.5 -34.5t-33.5 -23.5t-41.5 -8.5t-41 9t-32.5 24t-21 34.5t-7.5 41.5z" />
<glyph unicode="&#xd7;" horiz-adv-x="752" d="M137 350l164 166l-164 164l96 94l162 -164l164 164l96 -94l-161 -164l161 -166l-96 -94l-164 164l-162 -164z" />
<glyph unicode="&#xd8;" horiz-adv-x="981" d="M55 49l109 180q-9 28 -11.5 53.5t-2.5 53.5v764q0 77 25 140.5t79 119.5q107 110 256 110q189 0 295 -155l76 129l86 -58l-109 -182q6 -28 10 -53t4 -51v-764q0 -78 -26 -142.5t-80 -119.5q-54 -56 -118 -82.5t-138 -26.5q-190 0 -293 156l-78 -129zM360 229 q0 -31 12 -58.5t32.5 -48t47.5 -32.5t58 -12t59 12t48.5 32.5t32.5 48t12 58.5v641l-302 -508v-133zM360 563l302 508v135q0 31 -12 58.5t-32.5 48.5t-48.5 33t-59 12t-58 -12t-47.5 -33t-32.5 -48.5t-12 -58.5v-643z" />
<glyph unicode="&#xd9;" horiz-adv-x="1028" d="M106 1329v113h347v-113h-68v-1098q0 -32 12 -59.5t32.5 -48.5t48 -33t59.5 -12q30 0 56.5 12t46.5 33t32 48.5t12 59.5v1098h-68v113h351v-113h-70v-993q0 -75 -26 -141t-80 -121q-108 -111 -254 -111q-152 0 -258 111q-54 55 -79.5 121t-25.5 141v993h-68zM307 1755h156 l141 -250h-112z" />
<glyph unicode="&#xda;" horiz-adv-x="1028" d="M106 1329v113h347v-113h-68v-1098q0 -32 12 -59.5t32.5 -48.5t48 -33t59.5 -12q30 0 56.5 12t46.5 33t32 48.5t12 59.5v1098h-68v113h351v-113h-70v-993q0 -75 -26 -141t-80 -121q-108 -111 -254 -111q-152 0 -258 111q-54 55 -79.5 121t-25.5 141v993h-68zM465 1505 l143 250h156l-184 -250h-115z" />
<glyph unicode="&#xdb;" horiz-adv-x="1028" d="M106 1329v113h347v-113h-68v-1098q0 -32 12 -59.5t32.5 -48.5t48 -33t59.5 -12q30 0 56.5 12t46.5 33t32 48.5t12 59.5v1098h-68v113h351v-113h-70v-993q0 -75 -26 -141t-80 -121q-108 -111 -254 -111q-152 0 -258 111q-54 55 -79.5 121t-25.5 141v993h-68zM307 1505 l164 250h127l164 -250h-154l-71 113l-74 -113h-156z" />
<glyph unicode="&#xdc;" horiz-adv-x="1028" d="M106 1329v111h347v-111h-68v-1098q0 -32 12 -59.5t32.5 -48.5t48 -33t59.5 -12q30 0 56.5 12t46.5 33t32 48.5t12 59.5v1098h-68v111h351v-111h-70v-993q0 -75 -26 -141t-80 -121q-108 -111 -254 -111q-152 0 -258 111q-54 55 -79.5 121t-25.5 141v993h-68zM293 1612 q0 21 8 40.5t22 34.5t33 24t41 9q47 0 78 -31t31 -77q0 -23 -8.5 -42.5t-23 -34.5t-34.5 -23.5t-43 -8.5q-22 0 -41 9t-33 24t-22 34.5t-8 41.5zM565 1612q0 21 8.5 40.5t22.5 34.5t33.5 24t42.5 9q22 0 41.5 -8.5t33.5 -23t22.5 -34t8.5 -42.5t-8.5 -42.5t-22.5 -34.5 t-33.5 -23.5t-41.5 -8.5q-23 0 -42.5 9t-33.5 24t-22.5 34.5t-8.5 41.5z" />
<glyph unicode="&#xdd;" horiz-adv-x="944" d="M63 1329v111h365v-111h-61l178 -450l178 450h-57v111h258v-111h-76l-250 -606v-612h68v-111h-347v111h68v585l-250 633h-74zM422 1503l143 252h156l-184 -252h-115z" />
<glyph unicode="&#xde;" horiz-adv-x="956" d="M104 0v111h68v1212h-68v111h347v-111h-68v-219h149q147 0 254 -111q107 -106 107 -258v-37q0 -151 -107 -258q-107 -110 -254 -110h-149v-219h68v-111h-347zM383 442h149q31 0 58 12t47.5 32.5t32.5 48t12 59.5v244q0 32 -12 60t-32.5 48.5t-47.5 32.5t-58 12h-149v-549z " />
<glyph unicode="&#xdf;" horiz-adv-x="975" d="M78 -238h69v1344q0 152 107 262q54 54 116.5 82.5t137.5 28.5q74 0 136.5 -28.5t115.5 -82.5q106 -110 106 -262q0 -48 -12 -94t-34 -86.5t-53.5 -74.5t-70.5 -58q79 -53 124.5 -136.5t45.5 -179.5v-141q0 -150 -106 -260q-53 -56 -115.5 -84.5t-136.5 -28.5h-55v115h55 q31 0 58 12t47 33t32 48.5t12 59.5v349q0 32 -12 60.5t-32 49.5t-47 33t-58 12h-55v113h55q31 0 58 12t47 33t32 49t12 59v209q0 32 -12 60.5t-32 49.5t-47 33.5t-58 12.5t-58 -12.5t-47.5 -33.5t-32.5 -49.5t-12 -60.5v-1448h68v-112h-348v112z" />
<glyph unicode="&#xe0;" horiz-adv-x="999" d="M147 334v69q0 78 26.5 141.5t80.5 119.5q54 55 116.5 81.5t137.5 26.5q42 0 78.5 -13t70.5 -36v133q0 31 -12 59t-32 49t-47 33.5t-58 12.5q-54 0 -98.5 -19.5t-79.5 -56.5q-37 -37 -55.5 -88.5t-18.5 -114.5h-109v354h109v-69q99 104 252 104q147 0 252 -110 q106 -107 106 -258v-641h70v-111h-227v63q-38 -45 -91 -71.5t-110 -26.5q-75 0 -137.5 27.5t-116.5 83.5t-80.5 119t-26.5 139zM279 1399h155l141 -250h-110zM358 229q0 -31 12 -58.5t32.5 -48t47.5 -32.5t58 -12t58 12t47 32.5t32 48t12 58.5v279q0 31 -12 59t-32 49 t-47 33.5t-58 12.5t-58 -12.5t-47.5 -33.5t-32.5 -49t-12 -59v-279z" />
<glyph unicode="&#xe1;" horiz-adv-x="999" d="M147 334v69q0 78 26.5 141.5t80.5 119.5q54 55 116.5 81.5t137.5 26.5q42 0 78.5 -13t70.5 -36v133q0 31 -12 59t-32 49t-47 33.5t-58 12.5q-54 0 -98.5 -19.5t-79.5 -56.5q-37 -37 -55.5 -88.5t-18.5 -114.5h-109v354h109v-69q99 104 252 104q147 0 252 -110 q106 -107 106 -258v-641h70v-111h-227v63q-38 -45 -91 -71.5t-110 -26.5q-75 0 -137.5 27.5t-116.5 83.5t-80.5 119t-26.5 139zM358 229q0 -31 12 -58.5t32.5 -48t47.5 -32.5t58 -12t58 12t47 32.5t32 48t12 58.5v279q0 31 -12 59t-32 49t-47 33.5t-58 12.5t-58 -12.5 t-47.5 -33.5t-32.5 -49t-12 -59v-279zM436 1149l144 250h155l-184 -250h-115z" />
<glyph unicode="&#xe2;" horiz-adv-x="999" d="M147 334v69q0 78 26.5 141.5t80.5 119.5q54 55 116.5 81.5t137.5 26.5q42 0 78.5 -13t70.5 -36v133q0 31 -12 59t-32 49t-47 33.5t-58 12.5q-54 0 -98.5 -19.5t-79.5 -56.5q-37 -37 -55.5 -88.5t-18.5 -114.5h-109v354h109v-69q99 104 252 104q147 0 252 -110 q106 -107 106 -258v-641h70v-111h-227v63q-38 -45 -91 -71.5t-110 -26.5q-75 0 -137.5 27.5t-116.5 83.5t-80.5 119t-26.5 139zM281 1149l163 250h125l164 -250h-153l-72 113l-74 -113h-153zM358 229q0 -31 12 -58.5t32.5 -48t47.5 -32.5t58 -12t58 12t47 32.5t32 48 t12 58.5v279q0 31 -12 59t-32 49t-47 33.5t-58 12.5t-58 -12.5t-47.5 -33.5t-32.5 -49t-12 -59v-279z" />
<glyph unicode="&#xe3;" horiz-adv-x="999" d="M147 334v69q0 152 107 259q54 55 116.5 82.5t137.5 27.5q42 0 78.5 -13t70.5 -38v133q0 31 -12 59t-32 49t-47 33.5t-58 12.5q-54 0 -98.5 -19.5t-79.5 -54.5q-74 -74 -74 -205h-109v354h109v-69q99 104 252 104q146 0 252 -108q106 -107 106 -258v-641h70v-111h-227v63 q-38 -45 -91 -71.5t-110 -26.5q-75 0 -137.5 27.5t-116.5 83.5q-107 106 -107 258zM193 1200q94 141 239 141q34 0 67.5 -8t65.5 -26q61 -31 80 -31q29 0 55 15.5t48 49.5l59 -43l4 -28q-80 -123 -229 -123q-34 0 -65.5 8t-65.5 27q-29 15 -49.5 23.5t-32.5 8.5 q-56 0 -103 -65zM358 229q0 -32 12 -59.5t32.5 -47.5t47.5 -32t58 -12t58 12t47 32t32 47.5t12 59.5v279q0 31 -12 59t-32 48t-47 32t-58 12t-58 -12t-47.5 -32t-32.5 -48t-12 -59v-279z" />
<glyph unicode="&#xe4;" horiz-adv-x="999" d="M147 334v69q0 151 107 261q54 54 116.5 81t137.5 27q42 0 78.5 -13t70.5 -36v131q0 31 -12 59.5t-32 50t-47 34t-58 12.5q-54 0 -98.5 -20.5t-79.5 -55.5q-74 -74 -74 -205h-109v354h109v-67q50 51 112.5 77.5t139.5 26.5q74 0 136.5 -28t115.5 -82q106 -107 106 -258 v-641h70v-111h-227v63q-38 -45 -91 -71.5t-110 -26.5q-75 0 -137.5 27.5t-116.5 83.5q-107 106 -107 258zM266 1253q0 22 8 42t22 35.5t33 24.5t42 9t42.5 -8.5t33.5 -23.5t22 -35.5t8 -43.5q0 -22 -8 -41.5t-22 -33.5t-33.5 -22.5t-42.5 -8.5t-42 8.5t-33 23t-22 34 t-8 40.5zM358 229q0 -32 12 -59.5t32.5 -47.5t47.5 -32t58 -12t58 12t47 32t32 47.5t12 59.5v279q0 31 -12 59t-32 49t-47 33.5t-58 12.5t-58 -12.5t-47.5 -33.5t-32.5 -49t-12 -59v-279zM537 1253q0 22 8.5 42t22.5 35.5t33.5 24.5t41.5 9t41.5 -8.5t34 -23.5t23 -35.5 t8.5 -43.5q0 -22 -8.5 -41.5t-23 -33.5t-34 -22.5t-41.5 -8.5t-41.5 8.5t-33.5 23t-22.5 34t-8.5 40.5z" />
<glyph unicode="&#xe5;" horiz-adv-x="999" d="M147 336v70q0 150 107 260q54 54 116.5 81t137.5 27q83 0 149 -51v135q0 31 -12 59t-32 49t-47 33.5t-58 12.5q-54 0 -98.5 -19.5t-79.5 -54.5q-74 -74 -74 -205h-109v357h109v-70q98 104 252 104q147 0 252 -110q106 -110 106 -260v-643h70v-111h-227v63 q-38 -45 -91 -71.5t-110 -26.5q-75 0 -137.5 27.5t-116.5 83.5q-107 110 -107 260zM301 1366q0 44 16 82.5t44 67.5t66 46t81 17t81 -17t66 -46t44 -67.5t16 -82.5q0 -45 -16 -84t-44 -67.5t-66 -45t-81 -16.5t-81 16.5t-66 45t-44 67.5t-16 84zM358 231q0 -32 12 -59.5 t32.5 -48.5t47.5 -33t58 -12t58 12t47 33t32 48.5t12 59.5v277q0 32 -12 60.5t-32 49.5t-47 33.5t-58 12.5t-58 -12.5t-47.5 -33.5t-32.5 -49.5t-12 -60.5v-277zM408 1366q0 -21 8 -39.5t21.5 -32.5t31.5 -22t39 -8t38.5 8t31 22t21 32.5t7.5 39.5q0 42 -28 71t-70 29 t-71 -29t-29 -71z" />
<glyph unicode="&#xe6;" horiz-adv-x="1511" d="M150 332v69q0 149 108 256q56 56 119.5 82.5t140.5 26.5q82 0 152 -49v133q0 31 -12 58.5t-33 48t-48.5 32.5t-58.5 12q-54 0 -100.5 -18t-81.5 -55q-37 -35 -56.5 -87.5t-19.5 -115.5h-110v352h110v-67q104 102 258 102q166 0 260 -131q89 131 260 131q76 0 139.5 -27 t118.5 -81q109 -109 109 -259v-194h-522v-324q0 -62 47 -106q25 -22 51.5 -33.5t58.5 -11.5q53 0 98 19t83 55q35 37 54 87t19 115h111v-352h-111v68q-105 -103 -256 -103q-170 0 -260 129q-95 -129 -260 -129q-77 0 -140.5 27.5t-119.5 81.5q-108 109 -108 258zM365 227 q0 -31 12 -58.5t33 -48t48.5 -32.5t59.5 -12q31 0 58.5 12t48.5 32.5t33 48t12 58.5v277q0 31 -12 59t-33 48t-48.5 32t-58.5 12q-32 0 -59.5 -12t-48.5 -32t-33 -48t-12 -59v-277zM883 664h307v186q0 31 -12 58.5t-33 48t-48.5 32.5t-58.5 12q-32 0 -60.5 -12t-49.5 -32.5 t-33 -48t-12 -58.5v-186z" />
<glyph unicode="&#xe7;" d="M147 336v416q0 152 103 258q54 55 118 83.5t138 28.5t137 -27t111 -79v69h110v-354h-110q0 130 -72 205q-35 35 -80 54.5t-96 19.5q-31 0 -58 -12.5t-47.5 -33.5t-32.5 -49t-12 -59v-627q0 -31 12 -58.5t32.5 -48t47.5 -32.5t58 -12q51 0 96 18t80 56q72 75 72 202h110 v-354h-110v68q-44 -44 -95.5 -69.5t-113.5 -31.5l-4 -14q55 -8 90 -48.5t35 -99.5q0 -30 -11 -58t-30.5 -49t-45.5 -33.5t-57 -12.5h-129l29 110h100q16 0 26.5 13t10.5 30q0 39 -37 39h-110l22 127q-59 13 -108.5 42.5t-89.5 78.5q-89 104 -89 244z" />
<glyph unicode="&#xe8;" d="M147 334v418q0 152 103 258q108 110 256 110q145 0 250 -110q108 -110 108 -258v-195h-508v-328q0 -31 12 -58.5t32.5 -48t47.5 -32.5t58 -12q51 0 96 18t80 54q35 38 53.5 88.5t18.5 115.5h110v-354h-110v68q-48 -51 -111 -77t-137 -26q-146 0 -254 111q-53 56 -79 119 t-26 139zM279 1399h153l141 -250h-112zM356 668h297v188q0 31 -11.5 59t-32 49t-47 33.5t-56.5 12.5q-31 0 -58 -12.5t-47.5 -33.5t-32.5 -49t-12 -59v-188z" />
<glyph unicode="&#xe9;" d="M147 334v418q0 152 103 258q108 110 256 110q145 0 250 -110q108 -110 108 -258v-195h-508v-328q0 -31 12 -58.5t32.5 -48t47.5 -32.5t58 -12q51 0 96 18t80 54q35 38 53.5 88.5t18.5 115.5h110v-354h-110v68q-48 -51 -111 -77t-137 -26q-146 0 -254 111q-53 56 -79 119 t-26 139zM356 668h297v188q0 31 -11.5 59t-32 49t-47 33.5t-56.5 12.5q-31 0 -58 -12.5t-47.5 -33.5t-32.5 -49t-12 -59v-188zM436 1149l142 250h153l-182 -250h-113z" />
<glyph unicode="&#xea;" d="M147 334v418q0 152 103 258q108 110 256 110q145 0 250 -110q108 -110 108 -258v-195h-508v-328q0 -31 12 -58.5t32.5 -48t47.5 -32.5t58 -12q51 0 96 18t80 54q35 38 53.5 88.5t18.5 115.5h110v-354h-110v68q-48 -51 -111 -77t-137 -26q-146 0 -254 111q-53 56 -79 119 t-26 139zM279 1149l163 250h125l162 -250h-151l-72 113l-74 -113h-153zM356 668h297v188q0 31 -11.5 59t-32 49t-47 33.5t-56.5 12.5q-31 0 -58 -12.5t-47.5 -33.5t-32.5 -49t-12 -59v-188z" />
<glyph unicode="&#xeb;" d="M147 334v418q0 152 103 258q54 54 118 82t138 28t135.5 -28t114.5 -82q108 -110 108 -258v-197h-508v-326q0 -32 12 -59.5t32.5 -47.5t47.5 -32t58 -12q51 0 96 18t80 54q35 38 53.5 88.5t18.5 115.5h110v-354h-110v68q-48 -51 -111 -77t-137 -26q-146 0 -254 111 q-105 106 -105 258zM264 1253q0 22 8 42t22 35.5t33 24.5t42 9q22 0 41.5 -8.5t33.5 -23.5t22.5 -35.5t8.5 -43.5q0 -45 -30.5 -75.5t-75.5 -30.5q-23 0 -42 8.5t-33 23t-22 34t-8 40.5zM356 668h297v186q0 31 -11.5 59.5t-32 50t-47 34t-56.5 12.5q-31 0 -58 -12.5 t-47.5 -34t-32.5 -50t-12 -59.5v-186zM537 1253q0 22 7.5 42t21 35.5t32.5 24.5t41 9t41.5 -8.5t33.5 -23.5t22.5 -35.5t8.5 -43.5q0 -45 -30.5 -75.5t-75.5 -30.5q-22 0 -41 8.5t-32.5 23t-21 34t-7.5 40.5z" />
<glyph unicode="&#xec;" horiz-adv-x="494" d="M16 1397h148l133 -250h-104zM100 0v111h64v862h-64v110h265v-972h65v-111h-330z" />
<glyph unicode="&#xed;" horiz-adv-x="481" d="M98 0v111h66v862h-66v110h260v-972h64v-111h-324zM164 1147l133 250h143l-170 -250h-106z" />
<glyph unicode="&#xee;" horiz-adv-x="492" d="M18 1147l156 250h119l156 -250h-146l-70 113l-69 -113h-146zM100 0v111h64v862h-64v110h265v-972h65v-111h-330z" />
<glyph unicode="&#xef;" horiz-adv-x="500" d="M25 1253q0 22 8 41.5t22 34.5t32.5 24t39.5 9q43 0 71.5 -31t28.5 -78q0 -22 -7.5 -41.5t-21 -33.5t-32 -22.5t-39.5 -8.5t-39.5 8.5t-32.5 23t-22 34t-8 40.5zM102 0v111h64v862h-64v110h269v-972h65v-111h-334zM287 1253q0 22 8.5 41.5t22.5 34.5t32.5 24t38.5 9 q21 0 40 -8.5t33 -23t22 -34.5t8 -43q0 -22 -8 -41.5t-22 -33.5t-33 -22.5t-40 -8.5q-20 0 -38.5 8.5t-32.5 23t-22.5 34t-8.5 40.5z" />
<glyph unicode="&#xf0;" d="M147 336v416q0 150 105 258q54 55 117 83.5t137 28.5q81 0 147 -51v98q0 31 -11.5 59t-32 49t-47 33.5t-56.5 12.5h-82v-139h-109v252h191q74 0 135.5 -28.5t114.5 -82.5q108 -110 108 -258v-731q0 -78 -27 -141t-81 -119q-105 -111 -250 -111q-146 0 -254 111 q-53 56 -79 119t-26 141zM356 229q0 -31 12 -58.5t32.5 -48t47.5 -32.5t58 -12q30 0 56.5 12t47 32.5t32 48t11.5 58.5v627q0 31 -11.5 59t-32 49t-47 33.5t-56.5 12.5q-31 0 -58 -12.5t-47.5 -33.5t-32.5 -49t-12 -59v-627z" />
<glyph unicode="&#xf1;" horiz-adv-x="1028" d="M106 0v111h68v862h-68v110h228v-63q35 46 88 72t115 26q74 0 137 -27t117 -81q106 -110 106 -258v-641h70v-111h-351v111h68v743q0 31 -12 59t-32 49t-46.5 33.5t-56.5 12.5q-32 0 -59.5 -12.5t-48 -33.5t-32.5 -49t-12 -59v-743h68v-111h-347zM219 1200q95 139 242 139 q68 0 133 -32q31 -17 50 -25t30 -8q60 0 102 65l60 -41l4 -30q-41 -60 -98 -91.5t-132 -31.5q-34 0 -66.5 8.5t-64.5 28.5q-31 14 -51 22t-31 8q-29 0 -55 -15.5t-49 -49.5z" />
<glyph unicode="&#xf2;" d="M147 334v418q0 152 103 258q108 110 256 110q145 0 250 -110q108 -110 108 -258v-418q0 -149 -108 -260q-103 -109 -250 -109q-74 0 -138 26.5t-118 82.5q-53 55 -78 119.5t-25 140.5zM279 1399h153l141 -250h-112zM356 229q0 -31 12 -58.5t32.5 -48t47.5 -32.5t58 -12 q30 0 56.5 12t47 32.5t32 48t11.5 58.5v627q0 31 -11.5 59t-32 49t-47 33.5t-56.5 12.5q-31 0 -58 -12.5t-47.5 -33.5t-32.5 -49t-12 -59v-627z" />
<glyph unicode="&#xf3;" d="M147 334v418q0 152 103 258q108 110 256 110q145 0 250 -110q108 -110 108 -258v-418q0 -149 -108 -260q-103 -109 -250 -109q-74 0 -138 26.5t-118 82.5q-53 55 -78 119.5t-25 140.5zM356 229q0 -31 12 -58.5t32.5 -48t47.5 -32.5t58 -12q30 0 56.5 12t47 32.5t32 48 t11.5 58.5v627q0 31 -11.5 59t-32 49t-47 33.5t-56.5 12.5q-31 0 -58 -12.5t-47.5 -33.5t-32.5 -49t-12 -59v-627zM436 1149l142 250h153l-182 -250h-113z" />
<glyph unicode="&#xf4;" d="M147 334v418q0 152 103 258q108 110 256 110q145 0 250 -110q108 -110 108 -258v-418q0 -149 -108 -260q-103 -109 -250 -109q-74 0 -138 26.5t-118 82.5q-53 55 -78 119.5t-25 140.5zM279 1149l163 250h125l162 -250h-151l-72 113l-74 -113h-153zM356 229 q0 -31 12 -58.5t32.5 -48t47.5 -32.5t58 -12q30 0 56.5 12t47 32.5t32 48t11.5 58.5v627q0 31 -11.5 59t-32 49t-47 33.5t-56.5 12.5q-31 0 -58 -12.5t-47.5 -33.5t-32.5 -49t-12 -59v-627z" />
<glyph unicode="&#xf5;" d="M147 334v418q0 152 103 258q110 108 256 108q74 0 135.5 -27t114.5 -81q108 -110 108 -258v-418q0 -152 -108 -260q-103 -109 -250 -109q-74 0 -138 26.5t-118 82.5q-53 54 -78 119t-25 141zM193 1200q91 141 237 141q34 0 66.5 -8t66.5 -26q61 -31 78 -31q29 0 55 15.5 t47 49.5l60 -43l6 -28q-43 -62 -99 -92.5t-130 -30.5q-32 0 -64.5 8t-64.5 27q-31 15 -51.5 23.5t-32.5 8.5q-57 0 -101 -65zM356 229q0 -32 12 -59.5t32.5 -47.5t47.5 -32t58 -12q30 0 56.5 12t47 32t32 47.5t11.5 59.5v625q0 31 -11.5 59t-32 49t-47 33.5t-56.5 12.5 q-31 0 -58 -12.5t-47.5 -33.5t-32.5 -49t-12 -59v-625z" />
<glyph unicode="&#xf6;" d="M147 334v418q0 152 103 258q54 54 118 82t138 28t135.5 -28t114.5 -82q108 -110 108 -258v-418q0 -152 -108 -260q-103 -109 -250 -109q-74 0 -138 26.5t-118 82.5q-53 54 -78 119t-25 141zM264 1253q0 22 8 42t22 35.5t33 24.5t42 9q22 0 41.5 -8.5t33.5 -23.5 t22.5 -35.5t8.5 -43.5q0 -45 -30.5 -75.5t-75.5 -30.5q-23 0 -42 8.5t-33 23t-22 34t-8 40.5zM356 229q0 -32 12 -59.5t32.5 -47.5t47.5 -32t58 -12q30 0 56.5 12t47 32t32 47.5t11.5 59.5v625q0 31 -11.5 59.5t-32 50t-47 34t-56.5 12.5q-31 0 -58 -12.5t-47.5 -34 t-32.5 -50t-12 -59.5v-625zM537 1253q0 22 7.5 42t21 35.5t32.5 24.5t41 9t41.5 -8.5t33.5 -23.5t22.5 -35.5t8.5 -43.5q0 -45 -30.5 -75.5t-75.5 -30.5q-22 0 -41 8.5t-32.5 23t-21 34t-7.5 40.5z" />
<glyph unicode="&#xf7;" horiz-adv-x="786" d="M145 463v143h537v-143h-537zM293 207q0 27 9.5 50t25.5 39.5t38 26t48 9.5q24 0 45.5 -9.5t37.5 -26t25.5 -39.5t9.5 -50q0 -26 -9.5 -48t-25.5 -38t-37.5 -25.5t-45.5 -9.5q-26 0 -48 9.5t-38 25.5t-25.5 38t-9.5 48zM293 858q0 25 9.5 47.5t25.5 39.5t38 26.5t48 9.5 q24 0 45.5 -9.5t37.5 -26.5t25.5 -39.5t9.5 -47.5t-9.5 -47.5t-25.5 -39t-37.5 -26.5t-45.5 -10q-26 0 -48 10t-38 26.5t-25.5 39t-9.5 47.5z" />
<glyph unicode="&#xf8;" horiz-adv-x="981" d="M53 51l119 148q-14 32 -18 65t-4 68v413q0 76 25 140.5t79 118.5q110 108 256 108q183 0 287 -143l98 116l72 -59l-117 -145q12 -32 17 -66.5t5 -69.5v-413q0 -76 -26 -140.5t-80 -119.5q-107 -107 -256 -107q-180 0 -289 144l-94 -117zM360 227q0 -31 12 -58.5t32.5 -48 t47.5 -32.5t58 -12t59 12t48.5 32.5t32.5 48t12 58.5v420l-302 -368v-52zM360 428l302 369v53q0 31 -12 58.5t-32.5 48t-48.5 32.5t-59 12t-58 -12t-47.5 -32.5t-32.5 -48t-12 -58.5v-422z" />
<glyph unicode="&#xf9;" horiz-adv-x="1028" d="M106 975v110h279v-856q0 -31 12 -58.5t32.5 -48t48 -32.5t59.5 -12q30 0 56.5 12t46.5 32.5t32 48t12 58.5v746h-68v110h281v-974h70v-111h-230v63q-38 -45 -90.5 -71.5t-109.5 -26.5q-150 0 -256 111q-54 56 -80.5 119t-26.5 139v641h-68zM307 1399h156l141 -250h-112z " />
<glyph unicode="&#xfa;" horiz-adv-x="1028" d="M106 975v110h279v-856q0 -31 12 -58.5t32.5 -48t48 -32.5t59.5 -12q30 0 56.5 12t46.5 32.5t32 48t12 58.5v746h-68v110h281v-974h70v-111h-230v63q-38 -45 -90.5 -71.5t-109.5 -26.5q-150 0 -256 111q-54 56 -80.5 119t-26.5 139v641h-68zM465 1149l143 250h156 l-184 -250h-115z" />
<glyph unicode="&#xfb;" horiz-adv-x="1028" d="M106 975v110h279v-856q0 -31 12 -58.5t32.5 -48t48 -32.5t59.5 -12q30 0 56.5 12t46.5 32.5t32 48t12 58.5v746h-68v110h281v-974h70v-111h-230v63q-38 -45 -90.5 -71.5t-109.5 -26.5q-150 0 -256 111q-54 56 -80.5 119t-26.5 139v641h-68zM307 1149l164 250h127 l164 -250h-154l-71 113l-74 -113h-156z" />
<glyph unicode="&#xfc;" horiz-adv-x="1028" d="M106 973v110h279v-854q0 -32 12 -59.5t32.5 -47.5t48 -32t59.5 -12q30 0 56.5 12t46.5 32t32 47.5t12 59.5v744h-68v110h281v-972h70v-111h-230v63q-38 -45 -90.5 -71.5t-109.5 -26.5q-150 0 -256 111q-107 106 -107 258v639h-68zM293 1253q0 22 8 42t22 35.5t33 24.5 t41 9q47 0 78 -32t31 -79q0 -22 -8.5 -41.5t-23 -33.5t-34.5 -22.5t-43 -8.5q-22 0 -41 8.5t-33 23t-22 34t-8 40.5zM565 1253q0 22 8.5 42t22.5 35.5t33.5 24.5t42.5 9q22 0 41.5 -8.5t33.5 -23.5t22.5 -35.5t8.5 -43.5q0 -45 -30.5 -75.5t-75.5 -30.5q-23 0 -42.5 8.5 t-33.5 23t-22.5 34t-8.5 40.5z" />
<glyph unicode="&#xfd;" horiz-adv-x="999" d="M104 981v111h279v-861q0 -32 12 -59.5t32 -48.5t47.5 -33t57.5 -12q31 0 58 12t47.5 33t32.5 48.5t12 59.5v750h-68v111h279v-1106q0 -152 -107 -260q-107 -111 -274 -111v113q35 0 66 12t54 33t36.5 48.5t13.5 59.5v133q-32 -24 -69 -37.5t-81 -13.5q-145 0 -253 113 q-107 110 -107 260v645h-68zM465 1155l141 252h154l-182 -252h-113z" />
<glyph unicode="&#xfe;" horiz-adv-x="999" d="M104 -238h68v1567h-68v113h347v-113h-68v-250q65 47 149 47q148 0 254 -110q54 -56 80.5 -119.5t26.5 -140.5v-420q0 -150 -107 -260q-108 -113 -254 -113q-42 0 -79.5 13.5t-69.5 37.5v-252h68v-112h-347v112zM383 231q0 -32 12 -59.5t32 -48.5t47.5 -33t57.5 -12 q31 0 58 12t47.5 33t32.5 48.5t12 59.5v629q0 31 -12 59t-32.5 49t-47.5 33.5t-58 12.5q-30 0 -57.5 -12.5t-47.5 -33.5t-32 -49t-12 -59v-629z" />
<glyph unicode="&#xff;" horiz-adv-x="999" d="M104 981v111h279v-861q0 -32 12 -59.5t32 -48.5t47.5 -33t57.5 -12q31 0 58 12t47.5 33t32.5 48.5t12 59.5v750h-68v111h279v-1106q0 -152 -107 -260q-107 -111 -274 -111v113q35 0 66 12t54 33t36.5 48.5t13.5 59.5v133q-32 -24 -69 -37.5t-81 -13.5q-145 0 -253 113 q-107 110 -107 260v645h-68zM293 1264q0 21 7.5 40.5t21.5 34t33 23t42 8.5q45 0 75 -30t30 -76q0 -23 -8 -43.5t-22 -35.5t-33.5 -23.5t-41.5 -8.5q-23 0 -42 9t-33 24.5t-21.5 35.5t-7.5 42zM563 1264q0 21 8 40.5t22 34t33 23t42 8.5q22 0 41.5 -8t33.5 -22t22.5 -33.5 t8.5 -42.5t-8.5 -43.5t-22.5 -35.5t-33.5 -23.5t-41.5 -8.5q-23 0 -42 9t-33 24.5t-22 35.5t-8 42z" />
<glyph unicode="&#x152;" horiz-adv-x="1440" d="M150 336v764q0 77 27 140.5t81 119.5q110 110 258 110q59 0 113 -26.5t92 -73.5v66h610v-183h-108v72h-340v-551h166v70h110v-250h-110v68h-166v-551h340v69h108v-180h-610v63q-38 -45 -92 -71.5t-113 -26.5q-75 0 -138.5 27.5t-119.5 83.5q-54 56 -81 119t-27 141z M365 229q0 -31 12 -58.5t32.5 -48t48 -32.5t58.5 -12t58.5 12t48.5 32.5t33 48t12 58.5v977q0 31 -12 58.5t-33 48.5t-48.5 33t-58.5 12t-58.5 -12t-48 -33t-32.5 -48.5t-12 -58.5v-977z" />
<glyph unicode="&#x153;" horiz-adv-x="1511" d="M150 332v413q0 153 106 259q56 54 120.5 81t141.5 27q166 0 260 -131q89 131 260 131q76 0 139.5 -27t118.5 -81q109 -109 109 -259v-194h-522v-324q0 -31 12 -58.5t33 -48t49.5 -32.5t60.5 -12q53 0 98 19t83 55q75 75 75 202h111v-352h-111v68q-105 -103 -256 -103 q-170 0 -260 129q-95 -129 -260 -129q-152 0 -262 107q-54 55 -80 119.5t-26 140.5zM365 227q0 -31 12 -58.5t33 -48t48.5 -32.5t59.5 -12q31 0 58.5 12t48.5 32.5t33 48t12 58.5v623q0 31 -12 58.5t-33 48t-48.5 32.5t-58.5 12q-32 0 -59.5 -12t-48.5 -32.5t-33 -48 t-12 -58.5v-623zM883 664h307v186q0 31 -12 58.5t-33 48t-48.5 32.5t-58.5 12q-32 0 -60.5 -12t-49.5 -32.5t-33 -48t-12 -58.5v-186z" />
<glyph unicode="&#x178;" horiz-adv-x="944" d="M63 1327v113h365v-113h-61l178 -448l178 448h-57v113h258v-113h-76l-250 -604v-612h68v-111h-347v111h68v585l-250 631h-74zM250 1612q0 21 8 40.5t22 34.5t33.5 24t42.5 9q22 0 42 -8.5t34 -23t22.5 -34t8.5 -42.5t-8.5 -43t-22.5 -34.5t-34 -23t-42 -8.5q-23 0 -42.5 9 t-33.5 24t-22 34.5t-8 41.5zM522 1612q0 21 8.5 40.5t22.5 34.5t33.5 24t42.5 9q22 0 41.5 -8.5t33.5 -23t22.5 -34t8.5 -42.5t-8.5 -43t-22.5 -34.5t-33.5 -23t-41.5 -8.5q-23 0 -42.5 9t-33.5 24t-22.5 34.5t-8.5 41.5z" />
<glyph unicode="&#x2c6;" horiz-adv-x="637" d="M123 1016l156 215h118l156 -215h-145l-70 96l-70 -96h-145z" />
<glyph unicode="&#x2dc;" horiz-adv-x="854" d="M135 1047q48 57 106.5 84.5t131.5 27.5q32 0 65.5 -5.5t65.5 -20.5q29 -14 48 -19.5t30 -5.5q58 0 100 51l57 -33l6 -24q-81 -101 -225 -101q-64 0 -129 29q-29 14 -49 20.5t-33 6.5q-55 0 -100 -53z" />
<glyph unicode="&#x2000;" horiz-adv-x="877" />
<glyph unicode="&#x2001;" horiz-adv-x="1755" />
<glyph unicode="&#x2002;" horiz-adv-x="877" />
<glyph unicode="&#x2003;" horiz-adv-x="1755" />
<glyph unicode="&#x2004;" horiz-adv-x="585" />
<glyph unicode="&#x2005;" horiz-adv-x="438" />
<glyph unicode="&#x2006;" horiz-adv-x="292" />
<glyph unicode="&#x2007;" horiz-adv-x="292" />
<glyph unicode="&#x2008;" horiz-adv-x="219" />
<glyph unicode="&#x2009;" horiz-adv-x="351" />
<glyph unicode="&#x200a;" horiz-adv-x="97" />
<glyph unicode="&#x2010;" horiz-adv-x="786" d="M145 346v107h537v-107h-537z" />
<glyph unicode="&#x2011;" horiz-adv-x="786" d="M145 346v107h537v-107h-537z" />
<glyph unicode="&#x2012;" horiz-adv-x="786" d="M145 346v107h537v-107h-537z" />
<glyph unicode="&#x2013;" horiz-adv-x="676" d="M141 346v107h430v-107h-430z" />
<glyph unicode="&#x2014;" d="M147 346v107h717v-107h-717z" />
<glyph unicode="&#x2018;" horiz-adv-x="457" d="M133 1153q0 75 30.5 143t90.5 134l43 -68q-32 -31 -46.5 -63t-14.5 -66q4 2 14 2q21 0 41 -9.5t35.5 -26t24.5 -38t9 -45.5q0 -23 -9 -44t-24 -37.5t-34.5 -26t-40.5 -9.5q-28 0 -50 13t-37.5 34t-23.5 49t-8 58z" />
<glyph unicode="&#x2019;" horiz-adv-x="457" d="M133 1305q0 23 9 44t24 37t34.5 25.5t41.5 9.5q27 0 48.5 -12.5t37 -34t24 -49t8.5 -57.5q0 -76 -29 -144t-91 -133l-43 68q29 29 44 62t17 65h-14q-22 0 -42 9.5t-35.5 26t-24.5 38t-9 45.5z" />
<glyph unicode="&#x201a;" horiz-adv-x="457" d="M133 117q0 23 9 44.5t24 38t34.5 26.5t41.5 10q27 0 48.5 -13t37 -34.5t24 -49.5t8.5 -59q0 -74 -29 -143t-91 -134l-43 68q58 64 61 131q-3 -2 -7 -2h-7q-22 0 -42 9.5t-35.5 25.5t-24.5 37.5t-9 44.5z" />
<glyph unicode="&#x201c;" horiz-adv-x="799" d="M145 1153q0 75 33.5 143t100.5 134l47 -68q-35 -31 -51.5 -63t-16.5 -66q4 2 16 2q23 0 45 -9.5t39 -26t27 -38t10 -45.5q0 -23 -10 -44t-26.5 -37.5t-38 -26t-44.5 -9.5q-30 0 -54.5 13t-41.5 34t-26 49t-9 58zM444 1153q0 75 33.5 143t100.5 134l47 -68 q-68 -62 -68 -129q4 2 16 2q24 0 46 -9.5t38.5 -26t26.5 -38t10 -45.5q0 -23 -10 -44t-26.5 -37.5t-38 -26t-44.5 -9.5q-30 0 -54.5 13t-41.5 34t-26 49t-9 58z" />
<glyph unicode="&#x201d;" horiz-adv-x="799" d="M145 1305q0 23 9.5 44t26 37t38 25.5t45.5 9.5q30 0 54 -12.5t41.5 -34t26.5 -49t9 -57.5q0 -76 -33.5 -144t-99.5 -133l-47 68q34 29 50 62t18 65h-19q-23 0 -44.5 9.5t-38 26t-26.5 38t-10 45.5zM444 1305q0 23 9.5 44t26 37t38 25.5t45.5 9.5q30 0 54 -12.5t41.5 -34 t26.5 -49t9 -57.5q0 -76 -32.5 -144t-100.5 -133l-47 68q34 29 50 62t18 65h-17q-24 0 -45.5 9.5t-38.5 26t-27 38t-10 45.5z" />
<glyph unicode="&#x201e;" horiz-adv-x="799" d="M145 117q0 23 9.5 44.5t26 38t38 26.5t45.5 10q30 0 54 -13t41.5 -34.5t26.5 -49.5t9 -59q0 -147 -133 -277l-47 68q34 32 50 64.5t18 66.5q-3 -2 -9 -2h-10q-23 0 -44.5 9.5t-38 25.5t-26.5 37.5t-10 44.5zM444 117q0 23 9.5 44.5t26 38t38 26.5t45.5 10q30 0 54 -13 t41.5 -34.5t26.5 -49.5t9 -59q0 -74 -32.5 -143t-100.5 -134l-47 68q34 32 50 64.5t18 66.5q-3 -2 -9 -2h-8q-24 0 -45.5 9.5t-38.5 25.5t-27 37.5t-10 44.5z" />
<glyph unicode="&#x2022;" horiz-adv-x="786" d="M145 518q0 110 78 189q42 40 88.5 59.5t102.5 19.5q109 0 188 -79q40 -41 60 -87t20 -102q0 -110 -80 -190q-80 -78 -188 -78q-56 0 -102.5 19.5t-88.5 58.5q-78 78 -78 190z" />
<glyph unicode="&#x2026;" horiz-adv-x="1188" d="M150 106q0 22 9.5 42t26 35t38.5 23.5t48 8.5q25 0 47.5 -8.5t38.5 -23.5t25.5 -35t9.5 -42q0 -21 -9.5 -40.5t-25.5 -34t-38.5 -23t-47.5 -8.5q-26 0 -48 8.5t-38.5 23t-26 34t-9.5 40.5zM492 106q0 22 9.5 42t26 35t38.5 23.5t48 8.5q25 0 47.5 -8.5t39.5 -23.5 t26.5 -35t9.5 -42q0 -21 -9.5 -40.5t-26.5 -34t-39.5 -23t-47.5 -8.5q-26 0 -48 8.5t-38.5 23t-26 34t-9.5 40.5zM834 106q0 22 9.5 42t26 35t39 23.5t47.5 8.5t48 -8.5t40 -23.5t27 -35t10 -42q0 -21 -10 -40.5t-27 -34t-40 -23t-48 -8.5t-47.5 8.5t-39 23t-26 34 t-9.5 40.5z" />
<glyph unicode="&#x202f;" horiz-adv-x="351" />
<glyph unicode="&#x2039;" horiz-adv-x="664" d="M141 512v123l353 235l75 -118l-268 -179l268 -178l-75 -116z" />
<glyph unicode="&#x203a;" horiz-adv-x="664" d="M135 395l264 178l-264 179l72 118l354 -235v-123l-354 -233z" />
<glyph unicode="&#x205f;" horiz-adv-x="438" />
<glyph unicode="&#x20ac;" horiz-adv-x="1108" d="M106 522v146h170v98h-170v145h170v189q0 77 25.5 140.5t79.5 119.5q107 110 256 110q152 0 256 -104v70h108v-355h-108q0 63 -19.5 114.5t-54.5 88.5q-74 74 -182 74q-30 0 -57 -12t-48 -33t-33 -48.5t-12 -58.5v-295h342v-145h-342v-98h342v-146h-342v-293 q0 -31 12 -58.5t33 -48t48 -32.5t57 -12q109 0 182 74q35 37 54.5 88t19.5 114h108v-354h-108v68q-53 -51 -116 -77t-140 -26q-74 0 -138 26.5t-118 82.5q-54 55 -79.5 119.5t-25.5 142.5v186h-170z" />
<glyph unicode="&#x2122;" horiz-adv-x="1257" d="M150 1270v125h602v-92h-33l104 -383l101 383h-29v92h256v-92h-35v-551h35v-93h-213v93h33v358l-121 -451h-109l-120 451v-358h32v-93h-159v93h32v551h-104v-551h35v-93h-213v93h35v551h-37v-33h-92z" />
<glyph unicode="&#x25fc;" horiz-adv-x="1075" d="M0 0v1075h1075v-1075h-1075z" />
</font>
</defs>
</svg>
